<?xml version="1.0" encoding="utf-8" standalone="no"?>
<!DOCTYPE svg PUBLIC "-//W3C//DTD SVG 1.1//EN"
  "http://www.w3.org/Graphics/SVG/1.1/DTD/svg11.dtd">
<svg xmlns:xlink="http://www.w3.org/1999/xlink" width="460.8pt" height="345.6pt" viewBox="0 0 460.8 345.6" xmlns="http://www.w3.org/2000/svg" version="1.1">
 <metadata>
  <rdf:RDF xmlns:dc="http://purl.org/dc/elements/1.1/" xmlns:cc="http://creativecommons.org/ns#" xmlns:rdf="http://www.w3.org/1999/02/22-rdf-syntax-ns#">
   <cc:Work>
    <dc:type rdf:resource="http://purl.org/dc/dcmitype/StillImage"/>
    <dc:date>2024-03-19T23:18:07.700799</dc:date>
    <dc:format>image/svg+xml</dc:format>
    <dc:creator>
     <cc:Agent>
      <dc:title>Matplotlib v3.8.0, https://matplotlib.org/</dc:title>
     </cc:Agent>
    </dc:creator>
   </cc:Work>
  </rdf:RDF>
 </metadata>
 <defs>
  <style type="text/css">*{stroke-linejoin: round; stroke-linecap: butt}</style>
 </defs>
 <g id="figure_1">
  <g id="patch_1">
   <path d="M 0 345.6 
L 460.8 345.6 
L 460.8 0 
L 0 0 
z
" style="fill: #ffffff"/>
  </g>
  <g id="axes_1">
   <g id="patch_2">
    <path d="M 57.6 307.584 
L 414.72 307.584 
L 414.72 41.472 
L 57.6 41.472 
z
" style="fill: #ffffff"/>
   </g>
   <g id="matplotlib.axis_1">
    <g id="xtick_1">
     <g id="line2d_1">
      <path d="M 73.832727 307.584 
L 73.832727 41.472 
" clip-path="url(#p653839362b)" style="fill: none; stroke: #b0b0b0; stroke-width: 0.8; stroke-linecap: square"/>
     </g>
     <g id="line2d_2">
      <defs>
       <path id="m507d646317" d="M 0 0 
L 0 3.5 
" style="stroke: #000000; stroke-width: 0.8"/>
      </defs>
      <g>
       <use xlink:href="#m507d646317" x="73.832727" y="307.584" style="stroke: #000000; stroke-width: 0.8"/>
      </g>
     </g>
     <g id="text_1">
      <!-- 0 -->
      <g transform="translate(70.651477 322.182437) scale(0.1 -0.1)">
       <defs>
        <path id="DejaVuSans-30" d="M 2034 4250 
Q 1547 4250 1301 3770 
Q 1056 3291 1056 2328 
Q 1056 1369 1301 889 
Q 1547 409 2034 409 
Q 2525 409 2770 889 
Q 3016 1369 3016 2328 
Q 3016 3291 2770 3770 
Q 2525 4250 2034 4250 
z
M 2034 4750 
Q 2819 4750 3233 4129 
Q 3647 3509 3647 2328 
Q 3647 1150 3233 529 
Q 2819 -91 2034 -91 
Q 1250 -91 836 529 
Q 422 1150 422 2328 
Q 422 3509 836 4129 
Q 1250 4750 2034 4750 
z
" transform="scale(0.015625)"/>
       </defs>
       <use xlink:href="#DejaVuSans-30"/>
      </g>
     </g>
    </g>
    <g id="xtick_2">
     <g id="line2d_3">
      <path d="M 145.978182 307.584 
L 145.978182 41.472 
" clip-path="url(#p653839362b)" style="fill: none; stroke: #b0b0b0; stroke-width: 0.8; stroke-linecap: square"/>
     </g>
     <g id="line2d_4">
      <g>
       <use xlink:href="#m507d646317" x="145.978182" y="307.584" style="stroke: #000000; stroke-width: 0.8"/>
      </g>
     </g>
     <g id="text_2">
      <!-- 100 -->
      <g transform="translate(136.434432 322.182437) scale(0.1 -0.1)">
       <defs>
        <path id="DejaVuSans-31" d="M 794 531 
L 1825 531 
L 1825 4091 
L 703 3866 
L 703 4441 
L 1819 4666 
L 2450 4666 
L 2450 531 
L 3481 531 
L 3481 0 
L 794 0 
L 794 531 
z
" transform="scale(0.015625)"/>
       </defs>
       <use xlink:href="#DejaVuSans-31"/>
       <use xlink:href="#DejaVuSans-30" x="63.623047"/>
       <use xlink:href="#DejaVuSans-30" x="127.246094"/>
      </g>
     </g>
    </g>
    <g id="xtick_3">
     <g id="line2d_5">
      <path d="M 218.123636 307.584 
L 218.123636 41.472 
" clip-path="url(#p653839362b)" style="fill: none; stroke: #b0b0b0; stroke-width: 0.8; stroke-linecap: square"/>
     </g>
     <g id="line2d_6">
      <g>
       <use xlink:href="#m507d646317" x="218.123636" y="307.584" style="stroke: #000000; stroke-width: 0.8"/>
      </g>
     </g>
     <g id="text_3">
      <!-- 200 -->
      <g transform="translate(208.579886 322.182437) scale(0.1 -0.1)">
       <defs>
        <path id="DejaVuSans-32" d="M 1228 531 
L 3431 531 
L 3431 0 
L 469 0 
L 469 531 
Q 828 903 1448 1529 
Q 2069 2156 2228 2338 
Q 2531 2678 2651 2914 
Q 2772 3150 2772 3378 
Q 2772 3750 2511 3984 
Q 2250 4219 1831 4219 
Q 1534 4219 1204 4116 
Q 875 4013 500 3803 
L 500 4441 
Q 881 4594 1212 4672 
Q 1544 4750 1819 4750 
Q 2544 4750 2975 4387 
Q 3406 4025 3406 3419 
Q 3406 3131 3298 2873 
Q 3191 2616 2906 2266 
Q 2828 2175 2409 1742 
Q 1991 1309 1228 531 
z
" transform="scale(0.015625)"/>
       </defs>
       <use xlink:href="#DejaVuSans-32"/>
       <use xlink:href="#DejaVuSans-30" x="63.623047"/>
       <use xlink:href="#DejaVuSans-30" x="127.246094"/>
      </g>
     </g>
    </g>
    <g id="xtick_4">
     <g id="line2d_7">
      <path d="M 290.269091 307.584 
L 290.269091 41.472 
" clip-path="url(#p653839362b)" style="fill: none; stroke: #b0b0b0; stroke-width: 0.8; stroke-linecap: square"/>
     </g>
     <g id="line2d_8">
      <g>
       <use xlink:href="#m507d646317" x="290.269091" y="307.584" style="stroke: #000000; stroke-width: 0.8"/>
      </g>
     </g>
     <g id="text_4">
      <!-- 300 -->
      <g transform="translate(280.725341 322.182437) scale(0.1 -0.1)">
       <defs>
        <path id="DejaVuSans-33" d="M 2597 2516 
Q 3050 2419 3304 2112 
Q 3559 1806 3559 1356 
Q 3559 666 3084 287 
Q 2609 -91 1734 -91 
Q 1441 -91 1130 -33 
Q 819 25 488 141 
L 488 750 
Q 750 597 1062 519 
Q 1375 441 1716 441 
Q 2309 441 2620 675 
Q 2931 909 2931 1356 
Q 2931 1769 2642 2001 
Q 2353 2234 1838 2234 
L 1294 2234 
L 1294 2753 
L 1863 2753 
Q 2328 2753 2575 2939 
Q 2822 3125 2822 3475 
Q 2822 3834 2567 4026 
Q 2313 4219 1838 4219 
Q 1578 4219 1281 4162 
Q 984 4106 628 3988 
L 628 4550 
Q 988 4650 1302 4700 
Q 1616 4750 1894 4750 
Q 2613 4750 3031 4423 
Q 3450 4097 3450 3541 
Q 3450 3153 3228 2886 
Q 3006 2619 2597 2516 
z
" transform="scale(0.015625)"/>
       </defs>
       <use xlink:href="#DejaVuSans-33"/>
       <use xlink:href="#DejaVuSans-30" x="63.623047"/>
       <use xlink:href="#DejaVuSans-30" x="127.246094"/>
      </g>
     </g>
    </g>
    <g id="xtick_5">
     <g id="line2d_9">
      <path d="M 362.414545 307.584 
L 362.414545 41.472 
" clip-path="url(#p653839362b)" style="fill: none; stroke: #b0b0b0; stroke-width: 0.8; stroke-linecap: square"/>
     </g>
     <g id="line2d_10">
      <g>
       <use xlink:href="#m507d646317" x="362.414545" y="307.584" style="stroke: #000000; stroke-width: 0.8"/>
      </g>
     </g>
     <g id="text_5">
      <!-- 400 -->
      <g transform="translate(352.870795 322.182437) scale(0.1 -0.1)">
       <defs>
        <path id="DejaVuSans-34" d="M 2419 4116 
L 825 1625 
L 2419 1625 
L 2419 4116 
z
M 2253 4666 
L 3047 4666 
L 3047 1625 
L 3713 1625 
L 3713 1100 
L 3047 1100 
L 3047 0 
L 2419 0 
L 2419 1100 
L 313 1100 
L 313 1709 
L 2253 4666 
z
" transform="scale(0.015625)"/>
       </defs>
       <use xlink:href="#DejaVuSans-34"/>
       <use xlink:href="#DejaVuSans-30" x="63.623047"/>
       <use xlink:href="#DejaVuSans-30" x="127.246094"/>
      </g>
     </g>
    </g>
    <g id="text_6">
     <!-- Epoch -->
     <g transform="translate(220.849063 335.860562) scale(0.1 -0.1)">
      <defs>
       <path id="DejaVuSans-45" d="M 628 4666 
L 3578 4666 
L 3578 4134 
L 1259 4134 
L 1259 2753 
L 3481 2753 
L 3481 2222 
L 1259 2222 
L 1259 531 
L 3634 531 
L 3634 0 
L 628 0 
L 628 4666 
z
" transform="scale(0.015625)"/>
       <path id="DejaVuSans-70" d="M 1159 525 
L 1159 -1331 
L 581 -1331 
L 581 3500 
L 1159 3500 
L 1159 2969 
Q 1341 3281 1617 3432 
Q 1894 3584 2278 3584 
Q 2916 3584 3314 3078 
Q 3713 2572 3713 1747 
Q 3713 922 3314 415 
Q 2916 -91 2278 -91 
Q 1894 -91 1617 61 
Q 1341 213 1159 525 
z
M 3116 1747 
Q 3116 2381 2855 2742 
Q 2594 3103 2138 3103 
Q 1681 3103 1420 2742 
Q 1159 2381 1159 1747 
Q 1159 1113 1420 752 
Q 1681 391 2138 391 
Q 2594 391 2855 752 
Q 3116 1113 3116 1747 
z
" transform="scale(0.015625)"/>
       <path id="DejaVuSans-6f" d="M 1959 3097 
Q 1497 3097 1228 2736 
Q 959 2375 959 1747 
Q 959 1119 1226 758 
Q 1494 397 1959 397 
Q 2419 397 2687 759 
Q 2956 1122 2956 1747 
Q 2956 2369 2687 2733 
Q 2419 3097 1959 3097 
z
M 1959 3584 
Q 2709 3584 3137 3096 
Q 3566 2609 3566 1747 
Q 3566 888 3137 398 
Q 2709 -91 1959 -91 
Q 1206 -91 779 398 
Q 353 888 353 1747 
Q 353 2609 779 3096 
Q 1206 3584 1959 3584 
z
" transform="scale(0.015625)"/>
       <path id="DejaVuSans-63" d="M 3122 3366 
L 3122 2828 
Q 2878 2963 2633 3030 
Q 2388 3097 2138 3097 
Q 1578 3097 1268 2742 
Q 959 2388 959 1747 
Q 959 1106 1268 751 
Q 1578 397 2138 397 
Q 2388 397 2633 464 
Q 2878 531 3122 666 
L 3122 134 
Q 2881 22 2623 -34 
Q 2366 -91 2075 -91 
Q 1284 -91 818 406 
Q 353 903 353 1747 
Q 353 2603 823 3093 
Q 1294 3584 2113 3584 
Q 2378 3584 2631 3529 
Q 2884 3475 3122 3366 
z
" transform="scale(0.015625)"/>
       <path id="DejaVuSans-68" d="M 3513 2113 
L 3513 0 
L 2938 0 
L 2938 2094 
Q 2938 2591 2744 2837 
Q 2550 3084 2163 3084 
Q 1697 3084 1428 2787 
Q 1159 2491 1159 1978 
L 1159 0 
L 581 0 
L 581 4863 
L 1159 4863 
L 1159 2956 
Q 1366 3272 1645 3428 
Q 1925 3584 2291 3584 
Q 2894 3584 3203 3211 
Q 3513 2838 3513 2113 
z
" transform="scale(0.015625)"/>
      </defs>
      <use xlink:href="#DejaVuSans-45"/>
      <use xlink:href="#DejaVuSans-70" x="63.183594"/>
      <use xlink:href="#DejaVuSans-6f" x="126.660156"/>
      <use xlink:href="#DejaVuSans-63" x="187.841797"/>
      <use xlink:href="#DejaVuSans-68" x="242.822266"/>
     </g>
    </g>
   </g>
   <g id="matplotlib.axis_2">
    <g id="ytick_1">
     <g id="line2d_11">
      <path d="M 57.6 305.932908 
L 414.72 305.932908 
" clip-path="url(#p653839362b)" style="fill: none; stroke: #b0b0b0; stroke-width: 0.8; stroke-linecap: square"/>
     </g>
     <g id="line2d_12">
      <defs>
       <path id="mb445f11124" d="M 0 0 
L -3.5 0 
" style="stroke: #000000; stroke-width: 0.8"/>
      </defs>
      <g>
       <use xlink:href="#mb445f11124" x="57.6" y="305.932908" style="stroke: #000000; stroke-width: 0.8"/>
      </g>
     </g>
     <g id="text_7">
      <!-- 0.2 -->
      <g transform="translate(34.696875 309.732126) scale(0.1 -0.1)">
       <defs>
        <path id="DejaVuSans-2e" d="M 684 794 
L 1344 794 
L 1344 0 
L 684 0 
L 684 794 
z
" transform="scale(0.015625)"/>
       </defs>
       <use xlink:href="#DejaVuSans-30"/>
       <use xlink:href="#DejaVuSans-2e" x="63.623047"/>
       <use xlink:href="#DejaVuSans-32" x="95.410156"/>
      </g>
     </g>
    </g>
    <g id="ytick_2">
     <g id="line2d_13">
      <path d="M 57.6 261.63312 
L 414.72 261.63312 
" clip-path="url(#p653839362b)" style="fill: none; stroke: #b0b0b0; stroke-width: 0.8; stroke-linecap: square"/>
     </g>
     <g id="line2d_14">
      <g>
       <use xlink:href="#mb445f11124" x="57.6" y="261.63312" style="stroke: #000000; stroke-width: 0.8"/>
      </g>
     </g>
     <g id="text_8">
      <!-- 0.3 -->
      <g transform="translate(34.696875 265.432338) scale(0.1 -0.1)">
       <use xlink:href="#DejaVuSans-30"/>
       <use xlink:href="#DejaVuSans-2e" x="63.623047"/>
       <use xlink:href="#DejaVuSans-33" x="95.410156"/>
      </g>
     </g>
    </g>
    <g id="ytick_3">
     <g id="line2d_15">
      <path d="M 57.6 217.333331 
L 414.72 217.333331 
" clip-path="url(#p653839362b)" style="fill: none; stroke: #b0b0b0; stroke-width: 0.8; stroke-linecap: square"/>
     </g>
     <g id="line2d_16">
      <g>
       <use xlink:href="#mb445f11124" x="57.6" y="217.333331" style="stroke: #000000; stroke-width: 0.8"/>
      </g>
     </g>
     <g id="text_9">
      <!-- 0.4 -->
      <g transform="translate(34.696875 221.13255) scale(0.1 -0.1)">
       <use xlink:href="#DejaVuSans-30"/>
       <use xlink:href="#DejaVuSans-2e" x="63.623047"/>
       <use xlink:href="#DejaVuSans-34" x="95.410156"/>
      </g>
     </g>
    </g>
    <g id="ytick_4">
     <g id="line2d_17">
      <path d="M 57.6 173.033543 
L 414.72 173.033543 
" clip-path="url(#p653839362b)" style="fill: none; stroke: #b0b0b0; stroke-width: 0.8; stroke-linecap: square"/>
     </g>
     <g id="line2d_18">
      <g>
       <use xlink:href="#mb445f11124" x="57.6" y="173.033543" style="stroke: #000000; stroke-width: 0.8"/>
      </g>
     </g>
     <g id="text_10">
      <!-- 0.5 -->
      <g transform="translate(34.696875 176.832762) scale(0.1 -0.1)">
       <defs>
        <path id="DejaVuSans-35" d="M 691 4666 
L 3169 4666 
L 3169 4134 
L 1269 4134 
L 1269 2991 
Q 1406 3038 1543 3061 
Q 1681 3084 1819 3084 
Q 2600 3084 3056 2656 
Q 3513 2228 3513 1497 
Q 3513 744 3044 326 
Q 2575 -91 1722 -91 
Q 1428 -91 1123 -41 
Q 819 9 494 109 
L 494 744 
Q 775 591 1075 516 
Q 1375 441 1709 441 
Q 2250 441 2565 725 
Q 2881 1009 2881 1497 
Q 2881 1984 2565 2268 
Q 2250 2553 1709 2553 
Q 1456 2553 1204 2497 
Q 953 2441 691 2322 
L 691 4666 
z
" transform="scale(0.015625)"/>
       </defs>
       <use xlink:href="#DejaVuSans-30"/>
       <use xlink:href="#DejaVuSans-2e" x="63.623047"/>
       <use xlink:href="#DejaVuSans-35" x="95.410156"/>
      </g>
     </g>
    </g>
    <g id="ytick_5">
     <g id="line2d_19">
      <path d="M 57.6 128.733755 
L 414.72 128.733755 
" clip-path="url(#p653839362b)" style="fill: none; stroke: #b0b0b0; stroke-width: 0.8; stroke-linecap: square"/>
     </g>
     <g id="line2d_20">
      <g>
       <use xlink:href="#mb445f11124" x="57.6" y="128.733755" style="stroke: #000000; stroke-width: 0.8"/>
      </g>
     </g>
     <g id="text_11">
      <!-- 0.6 -->
      <g transform="translate(34.696875 132.532974) scale(0.1 -0.1)">
       <defs>
        <path id="DejaVuSans-36" d="M 2113 2584 
Q 1688 2584 1439 2293 
Q 1191 2003 1191 1497 
Q 1191 994 1439 701 
Q 1688 409 2113 409 
Q 2538 409 2786 701 
Q 3034 994 3034 1497 
Q 3034 2003 2786 2293 
Q 2538 2584 2113 2584 
z
M 3366 4563 
L 3366 3988 
Q 3128 4100 2886 4159 
Q 2644 4219 2406 4219 
Q 1781 4219 1451 3797 
Q 1122 3375 1075 2522 
Q 1259 2794 1537 2939 
Q 1816 3084 2150 3084 
Q 2853 3084 3261 2657 
Q 3669 2231 3669 1497 
Q 3669 778 3244 343 
Q 2819 -91 2113 -91 
Q 1303 -91 875 529 
Q 447 1150 447 2328 
Q 447 3434 972 4092 
Q 1497 4750 2381 4750 
Q 2619 4750 2861 4703 
Q 3103 4656 3366 4563 
z
" transform="scale(0.015625)"/>
       </defs>
       <use xlink:href="#DejaVuSans-30"/>
       <use xlink:href="#DejaVuSans-2e" x="63.623047"/>
       <use xlink:href="#DejaVuSans-36" x="95.410156"/>
      </g>
     </g>
    </g>
    <g id="ytick_6">
     <g id="line2d_21">
      <path d="M 57.6 84.433967 
L 414.72 84.433967 
" clip-path="url(#p653839362b)" style="fill: none; stroke: #b0b0b0; stroke-width: 0.8; stroke-linecap: square"/>
     </g>
     <g id="line2d_22">
      <g>
       <use xlink:href="#mb445f11124" x="57.6" y="84.433967" style="stroke: #000000; stroke-width: 0.8"/>
      </g>
     </g>
     <g id="text_12">
      <!-- 0.7 -->
      <g transform="translate(34.696875 88.233186) scale(0.1 -0.1)">
       <defs>
        <path id="DejaVuSans-37" d="M 525 4666 
L 3525 4666 
L 3525 4397 
L 1831 0 
L 1172 0 
L 2766 4134 
L 525 4134 
L 525 4666 
z
" transform="scale(0.015625)"/>
       </defs>
       <use xlink:href="#DejaVuSans-30"/>
       <use xlink:href="#DejaVuSans-2e" x="63.623047"/>
       <use xlink:href="#DejaVuSans-37" x="95.410156"/>
      </g>
     </g>
    </g>
    <g id="text_13">
     <!-- Accuracy -->
     <g transform="translate(28.617187 197.356125) rotate(-90) scale(0.1 -0.1)">
      <defs>
       <path id="DejaVuSans-41" d="M 2188 4044 
L 1331 1722 
L 3047 1722 
L 2188 4044 
z
M 1831 4666 
L 2547 4666 
L 4325 0 
L 3669 0 
L 3244 1197 
L 1141 1197 
L 716 0 
L 50 0 
L 1831 4666 
z
" transform="scale(0.015625)"/>
       <path id="DejaVuSans-75" d="M 544 1381 
L 544 3500 
L 1119 3500 
L 1119 1403 
Q 1119 906 1312 657 
Q 1506 409 1894 409 
Q 2359 409 2629 706 
Q 2900 1003 2900 1516 
L 2900 3500 
L 3475 3500 
L 3475 0 
L 2900 0 
L 2900 538 
Q 2691 219 2414 64 
Q 2138 -91 1772 -91 
Q 1169 -91 856 284 
Q 544 659 544 1381 
z
M 1991 3584 
L 1991 3584 
z
" transform="scale(0.015625)"/>
       <path id="DejaVuSans-72" d="M 2631 2963 
Q 2534 3019 2420 3045 
Q 2306 3072 2169 3072 
Q 1681 3072 1420 2755 
Q 1159 2438 1159 1844 
L 1159 0 
L 581 0 
L 581 3500 
L 1159 3500 
L 1159 2956 
Q 1341 3275 1631 3429 
Q 1922 3584 2338 3584 
Q 2397 3584 2469 3576 
Q 2541 3569 2628 3553 
L 2631 2963 
z
" transform="scale(0.015625)"/>
       <path id="DejaVuSans-61" d="M 2194 1759 
Q 1497 1759 1228 1600 
Q 959 1441 959 1056 
Q 959 750 1161 570 
Q 1363 391 1709 391 
Q 2188 391 2477 730 
Q 2766 1069 2766 1631 
L 2766 1759 
L 2194 1759 
z
M 3341 1997 
L 3341 0 
L 2766 0 
L 2766 531 
Q 2569 213 2275 61 
Q 1981 -91 1556 -91 
Q 1019 -91 701 211 
Q 384 513 384 1019 
Q 384 1609 779 1909 
Q 1175 2209 1959 2209 
L 2766 2209 
L 2766 2266 
Q 2766 2663 2505 2880 
Q 2244 3097 1772 3097 
Q 1472 3097 1187 3025 
Q 903 2953 641 2809 
L 641 3341 
Q 956 3463 1253 3523 
Q 1550 3584 1831 3584 
Q 2591 3584 2966 3190 
Q 3341 2797 3341 1997 
z
" transform="scale(0.015625)"/>
       <path id="DejaVuSans-79" d="M 2059 -325 
Q 1816 -950 1584 -1140 
Q 1353 -1331 966 -1331 
L 506 -1331 
L 506 -850 
L 844 -850 
Q 1081 -850 1212 -737 
Q 1344 -625 1503 -206 
L 1606 56 
L 191 3500 
L 800 3500 
L 1894 763 
L 2988 3500 
L 3597 3500 
L 2059 -325 
z
" transform="scale(0.015625)"/>
      </defs>
      <use xlink:href="#DejaVuSans-41"/>
      <use xlink:href="#DejaVuSans-63" x="66.658203"/>
      <use xlink:href="#DejaVuSans-63" x="121.638672"/>
      <use xlink:href="#DejaVuSans-75" x="176.619141"/>
      <use xlink:href="#DejaVuSans-72" x="239.998047"/>
      <use xlink:href="#DejaVuSans-61" x="281.111328"/>
      <use xlink:href="#DejaVuSans-63" x="342.390625"/>
      <use xlink:href="#DejaVuSans-79" x="397.371094"/>
     </g>
    </g>
   </g>
   <g id="line2d_23">
    <path d="M 73.832727 295.488 
L 74.554182 276.571216 
L 75.275636 263.575808 
L 75.997091 253.736163 
L 76.718545 246.313206 
L 78.161455 234.888699 
L 79.604364 226.362642 
L 81.047273 219.780788 
L 82.490182 213.999695 
L 84.654545 206.37631 
L 86.818909 199.580636 
L 88.983273 193.599341 
L 91.147636 188.160159 
L 94.033455 182.00343 
L 96.197818 177.971453 
L 98.362182 174.209729 
L 101.969455 168.794621 
L 105.576727 164.451814 
L 110.626909 159.234269 
L 111.348364 158.659894 
L 114.234182 155.829886 
L 117.841455 152.757241 
L 119.284364 151.606444 
L 122.170182 149.438435 
L 124.334545 148.112663 
L 125.777455 147.097349 
L 126.498909 146.572047 
L 127.220364 146.18598 
L 127.941818 145.63076 
L 131.549091 143.496756 
L 132.270545 142.880747 
L 135.156364 141.039879 
L 136.599273 140.125129 
L 138.763636 139.050788 
L 141.649455 137.549683 
L 142.370909 137.277446 
L 148.864 133.785127 
L 153.192727 131.924334 
L 154.635636 131.140921 
L 162.571636 127.765838 
L 163.293091 127.360566 
L 164.014545 127.126751 
L 164.736 126.763728 
L 166.178909 126.350479 
L 167.621818 125.706832 
L 174.114909 123.408419 
L 176.279273 122.615303 
L 179.165091 121.697153 
L 181.329455 120.818434 
L 182.772364 120.287017 
L 183.493818 120.095077 
L 184.215273 120.025695 
L 185.658182 119.623042 
L 187.101091 119.128358 
L 191.429818 117.667473 
L 195.758545 116.127903 
L 196.48 116.055557 
L 201.530182 114.463592 
L 207.301818 113.043726 
L 208.744727 112.541787 
L 210.909091 111.915979 
L 212.352 111.407699 
L 214.516364 110.931593 
L 215.237818 110.627752 
L 215.959273 110.589573 
L 219.566545 109.543166 
L 223.173818 108.512692 
L 226.781091 107.270866 
L 233.995636 105.731559 
L 241.210182 103.810661 
L 241.931636 103.698143 
L 243.374545 103.225073 
L 244.817455 102.936293 
L 245.538909 102.693649 
L 246.260364 102.591435 
L 246.981818 102.356699 
L 249.146182 101.931918 
L 250.589091 101.409812 
L 254.196364 100.544587 
L 254.917818 100.505676 
L 257.082182 99.986397 
L 257.803636 99.919626 
L 262.853818 98.605702 
L 264.296727 98.427726 
L 266.461091 98.019368 
L 267.904 97.587369 
L 271.511273 96.872776 
L 272.232727 96.763953 
L 273.675636 96.3924 
L 274.397091 96.220374 
L 275.118545 96.185653 
L 278.725818 95.03658 
L 282.333091 94.378391 
L 283.776 93.986777 
L 284.497455 93.931274 
L 286.661818 93.280108 
L 289.547636 92.810415 
L 291.712 92.244148 
L 293.154909 91.864165 
L 293.876364 91.608442 
L 295.319273 91.382811 
L 297.483636 90.833128 
L 299.648 89.601374 
L 301.090909 88.869712 
L 305.419636 87.284836 
L 306.862545 87.035352 
L 309.748364 86.279238 
L 311.912727 85.866255 
L 314.077091 85.417995 
L 316.241455 85.09717 
L 319.848727 84.390663 
L 320.570182 84.374319 
L 322.734545 84.010951 
L 323.456 83.896726 
L 325.620364 83.203508 
L 328.506182 82.609564 
L 329.227636 82.333254 
L 333.556364 81.638621 
L 339.328 81.111375 
L 340.770909 80.977855 
L 350.871273 79.657656 
L 355.2 79.455533 
L 356.642909 79.281339 
L 357.364364 79.322102 
L 358.807273 79.151996 
L 361.693091 79.088229 
L 363.136 78.980772 
L 364.578909 78.909187 
L 367.464727 78.500401 
L 368.907636 78.470867 
L 370.350545 78.416328 
L 371.793455 78.425702 
L 372.514909 78.451616 
L 373.957818 78.276594 
L 382.615273 77.876589 
L 383.336727 77.689647 
L 384.058182 77.711394 
L 385.501091 77.501096 
L 389.108364 77.532904 
L 389.829818 77.472868 
L 391.272727 77.609916 
L 391.994182 77.57565 
L 393.437091 77.684507 
L 394.88 77.629643 
L 396.322909 77.730112 
L 398.487273 77.630329 
L 398.487273 77.630329 
" clip-path="url(#p653839362b)" style="fill: none; stroke: #1f77b4; stroke-width: 1.5; stroke-linecap: square"/>
   </g>
   <g id="line2d_24">
    <path d="M 73.832727 283.123437 
L 74.554182 268.760979 
L 75.275636 258.516806 
L 75.997091 250.371509 
L 77.44 238.492124 
L 78.161455 233.758985 
L 79.604364 226.462376 
L 81.047273 220.211713 
L 82.490182 214.914159 
L 83.933091 210.598476 
L 85.376 206.898386 
L 86.818909 203.643356 
L 88.261818 200.895808 
L 89.704727 198.259742 
L 91.147636 195.767557 
L 96.919273 187.689317 
L 101.969455 182.653594 
L 102.690909 182.092669 
L 103.412364 181.380035 
L 106.298182 179.089881 
L 107.741091 177.910409 
L 109.184 176.996419 
L 110.626909 175.988034 
L 113.512727 173.974185 
L 116.398545 172.332053 
L 117.12 171.798863 
L 118.562909 171.057689 
L 119.284364 170.602054 
L 120.727273 169.950307 
L 125.056 167.638069 
L 127.220364 166.799278 
L 129.384727 165.674292 
L 130.827636 165.104529 
L 132.992 164.124705 
L 135.156364 163.381313 
L 137.320727 162.473759 
L 139.485091 161.624838 
L 141.649455 161.041656 
L 143.813818 160.072561 
L 151.749818 157.380533 
L 152.471273 157.232907 
L 154.635636 156.514227 
L 155.357091 156.278987 
L 156.078545 156.172606 
L 158.242909 155.432517 
L 160.407273 153.686903 
L 164.014545 151.318784 
L 164.736 150.820459 
L 169.064727 148.691803 
L 171.229091 147.962136 
L 174.836364 147.064377 
L 175.557818 147.000354 
L 177.722182 146.335402 
L 182.050909 145.571183 
L 182.772364 145.381821 
L 183.493818 145.458487 
L 186.379636 145.062046 
L 188.544 144.697421 
L 190.708364 144.511791 
L 191.429818 144.302358 
L 192.872727 144.180496 
L 194.315636 143.913743 
L 197.922909 143.381989 
L 199.365818 142.582667 
L 200.808727 141.980599 
L 201.530182 141.539941 
L 202.973091 141.192596 
L 205.858909 140.217754 
L 208.744727 139.656725 
L 210.187636 139.501609 
L 213.073455 139.029312 
L 217.402182 138.347881 
L 219.566545 137.589586 
L 221.009455 137.337959 
L 223.173818 137.071841 
L 224.616727 136.791298 
L 232.552727 136.017047 
L 236.881455 135.866033 
L 239.045818 135.755296 
L 240.488727 135.531947 
L 241.210182 135.610146 
L 248.424727 135.096371 
L 250.589091 134.79823 
L 252.032 134.687221 
L 252.753455 134.453164 
L 256.360727 134.319506 
L 257.082182 134.368331 
L 257.803636 134.245903 
L 258.525091 134.318824 
L 259.968 134.200853 
L 262.132364 134.130878 
L 263.575273 133.997325 
L 265.018182 133.993991 
L 265.739636 133.845992 
L 267.182545 133.768241 
L 268.625455 133.725347 
L 269.346909 133.809961 
L 272.954182 133.62324 
L 274.397091 133.676119 
L 276.561455 133.537831 
L 278.004364 133.27528 
L 282.333091 133.071823 
L 283.054545 133.096765 
L 284.497455 132.865446 
L 285.940364 132.794736 
L 286.661818 132.645576 
L 288.826182 132.738526 
L 292.433455 132.738639 
L 293.154909 132.850058 
L 293.876364 132.817438 
L 293.876364 132.817438 
" clip-path="url(#p653839362b)" style="fill: none; stroke: #ff7f0e; stroke-width: 1.5; stroke-linecap: square"/>
   </g>
   <g id="line2d_25">
    <path d="M 73.832727 285.604227 
L 74.554182 266.666712 
L 75.275636 254.750574 
L 76.718545 239.395501 
L 78.161455 227.52612 
L 79.604364 217.383221 
L 81.047273 208.814893 
L 82.490182 201.209957 
L 84.654545 191.509303 
L 86.097455 185.9055 
L 88.261818 178.48757 
L 90.426182 171.804384 
L 93.312 163.731599 
L 94.754909 160.184734 
L 96.197818 156.584933 
L 100.526545 147.208507 
L 102.690909 142.711924 
L 109.184 131.835721 
L 110.626909 129.646848 
L 112.069818 127.578013 
L 113.512727 125.639817 
L 114.234182 124.716386 
L 114.955636 123.557182 
L 117.841455 119.836729 
L 118.562909 118.683192 
L 121.448727 115.134037 
L 130.106182 106.081321 
L 133.713455 102.678542 
L 138.763636 98.25948 
L 139.485091 97.745172 
L 140.206545 96.959387 
L 140.928 96.445149 
L 141.649455 95.664352 
L 145.256727 92.868012 
L 145.978182 92.368164 
L 147.421091 91.13658 
L 151.749818 87.92375 
L 153.192727 87.019201 
L 153.914182 86.462388 
L 155.357091 85.589193 
L 158.242909 83.861535 
L 160.407273 82.697078 
L 161.128727 82.327354 
L 162.571636 81.23362 
L 165.457455 77.550437 
L 166.178909 76.925548 
L 167.621818 75.339562 
L 168.343273 74.84519 
L 169.064727 74.189585 
L 174.836364 70.526561 
L 176.279273 69.78545 
L 179.165091 68.670207 
L 179.886545 68.51889 
L 181.329455 67.916177 
L 184.936727 65.391745 
L 187.101091 64.100267 
L 188.544 63.630953 
L 192.151273 62.286899 
L 194.315636 61.730395 
L 196.48 61.254367 
L 197.201455 61.207702 
L 197.922909 60.908764 
L 199.365818 60.656099 
L 200.087273 60.473358 
L 202.251636 59.522507 
L 208.744727 57.916622 
L 212.352 57.281573 
L 213.073455 57.048416 
L 213.794909 56.935049 
L 214.516364 57.003327 
L 216.680727 56.723985 
L 217.402182 56.789743 
L 219.566545 56.577122 
L 221.730909 56.125684 
L 223.895273 55.832214 
L 225.338182 55.570678 
L 226.781091 55.547449 
L 228.945455 55.187963 
L 229.666909 55.332505 
L 230.388364 55.248971 
L 231.109818 55.36477 
L 234.717091 54.941407 
L 235.438545 54.941281 
L 240.488727 54.257244 
L 243.374545 54.123553 
L 244.817455 54.042638 
L 245.538909 53.961097 
L 246.260364 54.045219 
L 251.310545 53.568 
L 252.753455 53.697089 
L 254.196364 53.646309 
L 254.917818 53.603415 
L 256.360727 53.691224 
L 256.360727 53.691224 
" clip-path="url(#p653839362b)" style="fill: none; stroke: #2ca02c; stroke-width: 1.5; stroke-linecap: square"/>
   </g>
   <g id="line2d_26">
    <path d="M 73.832727 291.14662 
L 74.554182 269.763554 
L 75.275636 256.610222 
L 75.997091 247.298919 
L 76.718545 238.991069 
L 77.44 231.591355 
L 78.161455 224.714586 
L 78.882909 218.881243 
L 79.604364 213.731904 
L 80.325818 209.006863 
L 81.047273 204.950839 
L 81.768727 201.323273 
L 82.490182 197.589532 
L 83.211636 194.179607 
L 83.933091 191.022108 
L 84.654545 188.226846 
L 85.376 185.559847 
L 86.097455 182.96477 
L 86.818909 180.592982 
L 87.540364 178.312499 
L 88.261818 176.103664 
L 88.983273 174.150269 
L 89.704727 172.138511 
L 90.426182 170.387208 
L 91.147636 168.697511 
L 91.869091 167.002514 
L 92.590545 165.274386 
L 93.312 163.708054 
L 94.033455 162.343627 
L 94.754909 160.741858 
L 95.476364 159.420122 
L 96.197818 158.076351 
L 96.919273 156.759183 
L 97.640727 155.520929 
L 98.362182 154.387972 
L 99.083636 153.264046 
L 99.805091 152.227278 
L 100.526545 151.232074 
L 101.248 150.227801 
L 101.969455 149.259188 
L 102.690909 148.25251 
L 103.412364 147.270362 
L 104.133818 146.360824 
L 104.855273 145.442721 
L 105.576727 144.694606 
L 106.298182 143.882647 
L 107.019636 143.152114 
L 107.741091 142.344038 
L 108.462545 141.645474 
L 109.184 140.915609 
L 109.905455 139.212068 
L 110.626909 137.574613 
L 111.348364 136.040943 
L 112.069818 134.634078 
L 112.791273 133.302649 
L 113.512727 132.038009 
L 114.234182 130.858056 
L 114.955636 129.806518 
L 115.677091 128.680066 
L 116.398545 127.634144 
L 117.12 126.690211 
L 117.841455 125.722658 
L 118.562909 124.811713 
L 119.284364 123.318923 
L 120.005818 122.072325 
L 120.727273 120.792977 
L 121.448727 119.610269 
L 122.170182 118.492823 
L 122.891636 117.44591 
L 123.613091 116.548154 
L 124.334545 115.626021 
L 125.056 114.762713 
L 125.777455 113.930665 
L 126.498909 113.175 
L 127.220364 112.177855 
L 127.941818 111.169214 
L 128.663273 110.307783 
L 129.384727 109.434077 
L 130.106182 108.629076 
L 130.827636 107.858333 
L 131.549091 107.14008 
L 132.270545 106.483833 
L 132.992 105.922772 
L 133.713455 105.340052 
L 134.434909 104.806758 
L 135.156364 104.122019 
L 135.877818 103.526444 
L 136.599273 102.967794 
L 137.320727 102.4345 
L 138.042182 101.931901 
L 138.763636 101.473661 
L 139.485091 101.017932 
L 140.206545 100.62255 
L 140.928 100.27557 
L 141.649455 99.948524 
L 142.370909 99.615793 
L 143.092364 99.19426 
L 143.813818 98.80504 
L 144.535273 98.445883 
L 145.256727 98.168913 
L 145.978182 97.849747 
L 146.699636 97.567421 
L 147.421091 97.301515 
L 148.142545 97.049402 
L 148.864 96.820531 
L 149.585455 96.638175 
L 150.306909 96.431726 
" clip-path="url(#p653839362b)" style="fill: none; stroke: #d62728; stroke-width: 1.5; stroke-linecap: square"/>
   </g>
   <g id="patch_3">
    <path d="M 57.6 307.584 
L 57.6 41.472 
" style="fill: none; stroke: #000000; stroke-width: 0.8; stroke-linejoin: miter; stroke-linecap: square"/>
   </g>
   <g id="patch_4">
    <path d="M 414.72 307.584 
L 414.72 41.472 
" style="fill: none; stroke: #000000; stroke-width: 0.8; stroke-linejoin: miter; stroke-linecap: square"/>
   </g>
   <g id="patch_5">
    <path d="M 57.6 307.584 
L 414.72 307.584 
" style="fill: none; stroke: #000000; stroke-width: 0.8; stroke-linejoin: miter; stroke-linecap: square"/>
   </g>
   <g id="patch_6">
    <path d="M 57.6 41.472 
L 414.72 41.472 
" style="fill: none; stroke: #000000; stroke-width: 0.8; stroke-linejoin: miter; stroke-linecap: square"/>
   </g>
   <g id="text_14">
    <!-- Train Accuracy in CIFAR10 -->
    <g transform="translate(158.412188 35.472) scale(0.12 -0.12)">
     <defs>
      <path id="DejaVuSans-54" d="M -19 4666 
L 3928 4666 
L 3928 4134 
L 2272 4134 
L 2272 0 
L 1638 0 
L 1638 4134 
L -19 4134 
L -19 4666 
z
" transform="scale(0.015625)"/>
      <path id="DejaVuSans-69" d="M 603 3500 
L 1178 3500 
L 1178 0 
L 603 0 
L 603 3500 
z
M 603 4863 
L 1178 4863 
L 1178 4134 
L 603 4134 
L 603 4863 
z
" transform="scale(0.015625)"/>
      <path id="DejaVuSans-6e" d="M 3513 2113 
L 3513 0 
L 2938 0 
L 2938 2094 
Q 2938 2591 2744 2837 
Q 2550 3084 2163 3084 
Q 1697 3084 1428 2787 
Q 1159 2491 1159 1978 
L 1159 0 
L 581 0 
L 581 3500 
L 1159 3500 
L 1159 2956 
Q 1366 3272 1645 3428 
Q 1925 3584 2291 3584 
Q 2894 3584 3203 3211 
Q 3513 2838 3513 2113 
z
" transform="scale(0.015625)"/>
      <path id="DejaVuSans-20" transform="scale(0.015625)"/>
      <path id="DejaVuSans-43" d="M 4122 4306 
L 4122 3641 
Q 3803 3938 3442 4084 
Q 3081 4231 2675 4231 
Q 1875 4231 1450 3742 
Q 1025 3253 1025 2328 
Q 1025 1406 1450 917 
Q 1875 428 2675 428 
Q 3081 428 3442 575 
Q 3803 722 4122 1019 
L 4122 359 
Q 3791 134 3420 21 
Q 3050 -91 2638 -91 
Q 1578 -91 968 557 
Q 359 1206 359 2328 
Q 359 3453 968 4101 
Q 1578 4750 2638 4750 
Q 3056 4750 3426 4639 
Q 3797 4528 4122 4306 
z
" transform="scale(0.015625)"/>
      <path id="DejaVuSans-49" d="M 628 4666 
L 1259 4666 
L 1259 0 
L 628 0 
L 628 4666 
z
" transform="scale(0.015625)"/>
      <path id="DejaVuSans-46" d="M 628 4666 
L 3309 4666 
L 3309 4134 
L 1259 4134 
L 1259 2759 
L 3109 2759 
L 3109 2228 
L 1259 2228 
L 1259 0 
L 628 0 
L 628 4666 
z
" transform="scale(0.015625)"/>
      <path id="DejaVuSans-52" d="M 2841 2188 
Q 3044 2119 3236 1894 
Q 3428 1669 3622 1275 
L 4263 0 
L 3584 0 
L 2988 1197 
Q 2756 1666 2539 1819 
Q 2322 1972 1947 1972 
L 1259 1972 
L 1259 0 
L 628 0 
L 628 4666 
L 2053 4666 
Q 2853 4666 3247 4331 
Q 3641 3997 3641 3322 
Q 3641 2881 3436 2590 
Q 3231 2300 2841 2188 
z
M 1259 4147 
L 1259 2491 
L 2053 2491 
Q 2509 2491 2742 2702 
Q 2975 2913 2975 3322 
Q 2975 3731 2742 3939 
Q 2509 4147 2053 4147 
L 1259 4147 
z
" transform="scale(0.015625)"/>
     </defs>
     <use xlink:href="#DejaVuSans-54"/>
     <use xlink:href="#DejaVuSans-72" x="46.333984"/>
     <use xlink:href="#DejaVuSans-61" x="87.447266"/>
     <use xlink:href="#DejaVuSans-69" x="148.726562"/>
     <use xlink:href="#DejaVuSans-6e" x="176.509766"/>
     <use xlink:href="#DejaVuSans-20" x="239.888672"/>
     <use xlink:href="#DejaVuSans-41" x="271.675781"/>
     <use xlink:href="#DejaVuSans-63" x="338.333984"/>
     <use xlink:href="#DejaVuSans-63" x="393.314453"/>
     <use xlink:href="#DejaVuSans-75" x="448.294922"/>
     <use xlink:href="#DejaVuSans-72" x="511.673828"/>
     <use xlink:href="#DejaVuSans-61" x="552.787109"/>
     <use xlink:href="#DejaVuSans-63" x="614.066406"/>
     <use xlink:href="#DejaVuSans-79" x="669.046875"/>
     <use xlink:href="#DejaVuSans-20" x="728.226562"/>
     <use xlink:href="#DejaVuSans-69" x="760.013672"/>
     <use xlink:href="#DejaVuSans-6e" x="787.796875"/>
     <use xlink:href="#DejaVuSans-20" x="851.175781"/>
     <use xlink:href="#DejaVuSans-43" x="882.962891"/>
     <use xlink:href="#DejaVuSans-49" x="952.787109"/>
     <use xlink:href="#DejaVuSans-46" x="982.279297"/>
     <use xlink:href="#DejaVuSans-41" x="1030.673828"/>
     <use xlink:href="#DejaVuSans-52" x="1099.082031"/>
     <use xlink:href="#DejaVuSans-31" x="1168.564453"/>
     <use xlink:href="#DejaVuSans-30" x="1232.1875"/>
    </g>
   </g>
   <g id="legend_1">
    <g id="patch_7">
     <path d="M 319.566875 302.584 
L 407.72 302.584 
Q 409.72 302.584 409.72 300.584 
L 409.72 242.8715 
Q 409.72 240.8715 407.72 240.8715 
L 319.566875 240.8715 
Q 317.566875 240.8715 317.566875 242.8715 
L 317.566875 300.584 
Q 317.566875 302.584 319.566875 302.584 
z
" style="fill: #ffffff; opacity: 0.8; stroke: #cccccc; stroke-linejoin: miter"/>
    </g>
    <g id="line2d_27">
     <path d="M 321.566875 248.969937 
L 331.566875 248.969937 
L 341.566875 248.969937 
" style="fill: none; stroke: #1f77b4; stroke-width: 1.5; stroke-linecap: square"/>
    </g>
    <g id="text_15">
     <!-- GAT -->
     <g transform="translate(349.566875 252.469937) scale(0.1 -0.1)">
      <defs>
       <path id="DejaVuSans-47" d="M 3809 666 
L 3809 1919 
L 2778 1919 
L 2778 2438 
L 4434 2438 
L 4434 434 
Q 4069 175 3628 42 
Q 3188 -91 2688 -91 
Q 1594 -91 976 548 
Q 359 1188 359 2328 
Q 359 3472 976 4111 
Q 1594 4750 2688 4750 
Q 3144 4750 3555 4637 
Q 3966 4525 4313 4306 
L 4313 3634 
Q 3963 3931 3569 4081 
Q 3175 4231 2741 4231 
Q 1884 4231 1454 3753 
Q 1025 3275 1025 2328 
Q 1025 1384 1454 906 
Q 1884 428 2741 428 
Q 3075 428 3337 486 
Q 3600 544 3809 666 
z
" transform="scale(0.015625)"/>
      </defs>
      <use xlink:href="#DejaVuSans-47"/>
      <use xlink:href="#DejaVuSans-41" x="77.490234"/>
      <use xlink:href="#DejaVuSans-54" x="138.148438"/>
     </g>
    </g>
    <g id="line2d_28">
     <path d="M 321.566875 263.648062 
L 331.566875 263.648062 
L 341.566875 263.648062 
" style="fill: none; stroke: #ff7f0e; stroke-width: 1.5; stroke-linecap: square"/>
    </g>
    <g id="text_16">
     <!-- GCN -->
     <g transform="translate(349.566875 267.148062) scale(0.1 -0.1)">
      <defs>
       <path id="DejaVuSans-4e" d="M 628 4666 
L 1478 4666 
L 3547 763 
L 3547 4666 
L 4159 4666 
L 4159 0 
L 3309 0 
L 1241 3903 
L 1241 0 
L 628 0 
L 628 4666 
z
" transform="scale(0.015625)"/>
      </defs>
      <use xlink:href="#DejaVuSans-47"/>
      <use xlink:href="#DejaVuSans-43" x="77.490234"/>
      <use xlink:href="#DejaVuSans-4e" x="147.314453"/>
     </g>
    </g>
    <g id="line2d_29">
     <path d="M 321.566875 278.326187 
L 331.566875 278.326187 
L 341.566875 278.326187 
" style="fill: none; stroke: #2ca02c; stroke-width: 1.5; stroke-linecap: square"/>
    </g>
    <g id="text_17">
     <!-- GATEDGCN -->
     <g transform="translate(349.566875 281.826187) scale(0.1 -0.1)">
      <defs>
       <path id="DejaVuSans-44" d="M 1259 4147 
L 1259 519 
L 2022 519 
Q 2988 519 3436 956 
Q 3884 1394 3884 2338 
Q 3884 3275 3436 3711 
Q 2988 4147 2022 4147 
L 1259 4147 
z
M 628 4666 
L 1925 4666 
Q 3281 4666 3915 4102 
Q 4550 3538 4550 2338 
Q 4550 1131 3912 565 
Q 3275 0 1925 0 
L 628 0 
L 628 4666 
z
" transform="scale(0.015625)"/>
      </defs>
      <use xlink:href="#DejaVuSans-47"/>
      <use xlink:href="#DejaVuSans-41" x="77.490234"/>
      <use xlink:href="#DejaVuSans-54" x="138.148438"/>
      <use xlink:href="#DejaVuSans-45" x="199.232422"/>
      <use xlink:href="#DejaVuSans-44" x="262.416016"/>
      <use xlink:href="#DejaVuSans-47" x="339.417969"/>
      <use xlink:href="#DejaVuSans-43" x="416.908203"/>
      <use xlink:href="#DejaVuSans-4e" x="486.732422"/>
     </g>
    </g>
    <g id="line2d_30">
     <path d="M 321.566875 293.004312 
L 331.566875 293.004312 
L 341.566875 293.004312 
" style="fill: none; stroke: #d62728; stroke-width: 1.5; stroke-linecap: square"/>
    </g>
    <g id="text_18">
     <!-- MLP -->
     <g transform="translate(349.566875 296.504312) scale(0.1 -0.1)">
      <defs>
       <path id="DejaVuSans-4d" d="M 628 4666 
L 1569 4666 
L 2759 1491 
L 3956 4666 
L 4897 4666 
L 4897 0 
L 4281 0 
L 4281 4097 
L 3078 897 
L 2444 897 
L 1241 4097 
L 1241 0 
L 628 0 
L 628 4666 
z
" transform="scale(0.015625)"/>
       <path id="DejaVuSans-4c" d="M 628 4666 
L 1259 4666 
L 1259 531 
L 3531 531 
L 3531 0 
L 628 0 
L 628 4666 
z
" transform="scale(0.015625)"/>
       <path id="DejaVuSans-50" d="M 1259 4147 
L 1259 2394 
L 2053 2394 
Q 2494 2394 2734 2622 
Q 2975 2850 2975 3272 
Q 2975 3691 2734 3919 
Q 2494 4147 2053 4147 
L 1259 4147 
z
M 628 4666 
L 2053 4666 
Q 2838 4666 3239 4311 
Q 3641 3956 3641 3272 
Q 3641 2581 3239 2228 
Q 2838 1875 2053 1875 
L 1259 1875 
L 1259 0 
L 628 0 
L 628 4666 
z
" transform="scale(0.015625)"/>
      </defs>
      <use xlink:href="#DejaVuSans-4d"/>
      <use xlink:href="#DejaVuSans-4c" x="86.279297"/>
      <use xlink:href="#DejaVuSans-50" x="141.992188"/>
     </g>
    </g>
   </g>
  </g>
 </g>
 <defs>
  <clipPath id="p653839362b">
   <rect x="57.6" y="41.472" width="357.12" height="266.112"/>
  </clipPath>
 </defs>
</svg>
