<?xml version="1.0" encoding="utf-8" standalone="no"?>
<!DOCTYPE svg PUBLIC "-//W3C//DTD SVG 1.1//EN"
  "http://www.w3.org/Graphics/SVG/1.1/DTD/svg11.dtd">
<svg xmlns:xlink="http://www.w3.org/1999/xlink" width="460.8pt" height="345.6pt" viewBox="0 0 460.8 345.6" xmlns="http://www.w3.org/2000/svg" version="1.1">
 <metadata>
  <rdf:RDF xmlns:dc="http://purl.org/dc/elements/1.1/" xmlns:cc="http://creativecommons.org/ns#" xmlns:rdf="http://www.w3.org/1999/02/22-rdf-syntax-ns#">
   <cc:Work>
    <dc:type rdf:resource="http://purl.org/dc/dcmitype/StillImage"/>
    <dc:date>2024-03-19T23:35:27.455451</dc:date>
    <dc:format>image/svg+xml</dc:format>
    <dc:creator>
     <cc:Agent>
      <dc:title>Matplotlib v3.8.0, https://matplotlib.org/</dc:title>
     </cc:Agent>
    </dc:creator>
   </cc:Work>
  </rdf:RDF>
 </metadata>
 <defs>
  <style type="text/css">*{stroke-linejoin: round; stroke-linecap: butt}</style>
 </defs>
 <g id="figure_1">
  <g id="patch_1">
   <path d="M 0 345.6 
L 460.8 345.6 
L 460.8 0 
L 0 0 
z
" style="fill: #ffffff"/>
  </g>
  <g id="axes_1">
   <g id="patch_2">
    <path d="M 57.6 307.584 
L 414.72 307.584 
L 414.72 41.472 
L 57.6 41.472 
z
" style="fill: #ffffff"/>
   </g>
   <g id="matplotlib.axis_1">
    <g id="xtick_1">
     <g id="line2d_1">
      <path d="M 73.832727 307.584 
L 73.832727 41.472 
" clip-path="url(#peab60f00a5)" style="fill: none; stroke: #b0b0b0; stroke-width: 0.8; stroke-linecap: square"/>
     </g>
     <g id="line2d_2">
      <defs>
       <path id="me30b6b2286" d="M 0 0 
L 0 3.5 
" style="stroke: #000000; stroke-width: 0.8"/>
      </defs>
      <g>
       <use xlink:href="#me30b6b2286" x="73.832727" y="307.584" style="stroke: #000000; stroke-width: 0.8"/>
      </g>
     </g>
     <g id="text_1">
      <!-- 0 -->
      <g transform="translate(70.651477 322.182437) scale(0.1 -0.1)">
       <defs>
        <path id="DejaVuSans-30" d="M 2034 4250 
Q 1547 4250 1301 3770 
Q 1056 3291 1056 2328 
Q 1056 1369 1301 889 
Q 1547 409 2034 409 
Q 2525 409 2770 889 
Q 3016 1369 3016 2328 
Q 3016 3291 2770 3770 
Q 2525 4250 2034 4250 
z
M 2034 4750 
Q 2819 4750 3233 4129 
Q 3647 3509 3647 2328 
Q 3647 1150 3233 529 
Q 2819 -91 2034 -91 
Q 1250 -91 836 529 
Q 422 1150 422 2328 
Q 422 3509 836 4129 
Q 1250 4750 2034 4750 
z
" transform="scale(0.015625)"/>
       </defs>
       <use xlink:href="#DejaVuSans-30"/>
      </g>
     </g>
    </g>
    <g id="xtick_2">
     <g id="line2d_3">
      <path d="M 119.049238 307.584 
L 119.049238 41.472 
" clip-path="url(#peab60f00a5)" style="fill: none; stroke: #b0b0b0; stroke-width: 0.8; stroke-linecap: square"/>
     </g>
     <g id="line2d_4">
      <g>
       <use xlink:href="#me30b6b2286" x="119.049238" y="307.584" style="stroke: #000000; stroke-width: 0.8"/>
      </g>
     </g>
     <g id="text_2">
      <!-- 50 -->
      <g transform="translate(112.686738 322.182437) scale(0.1 -0.1)">
       <defs>
        <path id="DejaVuSans-35" d="M 691 4666 
L 3169 4666 
L 3169 4134 
L 1269 4134 
L 1269 2991 
Q 1406 3038 1543 3061 
Q 1681 3084 1819 3084 
Q 2600 3084 3056 2656 
Q 3513 2228 3513 1497 
Q 3513 744 3044 326 
Q 2575 -91 1722 -91 
Q 1428 -91 1123 -41 
Q 819 9 494 109 
L 494 744 
Q 775 591 1075 516 
Q 1375 441 1709 441 
Q 2250 441 2565 725 
Q 2881 1009 2881 1497 
Q 2881 1984 2565 2268 
Q 2250 2553 1709 2553 
Q 1456 2553 1204 2497 
Q 953 2441 691 2322 
L 691 4666 
z
" transform="scale(0.015625)"/>
       </defs>
       <use xlink:href="#DejaVuSans-35"/>
       <use xlink:href="#DejaVuSans-30" x="63.623047"/>
      </g>
     </g>
    </g>
    <g id="xtick_3">
     <g id="line2d_5">
      <path d="M 164.265748 307.584 
L 164.265748 41.472 
" clip-path="url(#peab60f00a5)" style="fill: none; stroke: #b0b0b0; stroke-width: 0.8; stroke-linecap: square"/>
     </g>
     <g id="line2d_6">
      <g>
       <use xlink:href="#me30b6b2286" x="164.265748" y="307.584" style="stroke: #000000; stroke-width: 0.8"/>
      </g>
     </g>
     <g id="text_3">
      <!-- 100 -->
      <g transform="translate(154.721998 322.182437) scale(0.1 -0.1)">
       <defs>
        <path id="DejaVuSans-31" d="M 794 531 
L 1825 531 
L 1825 4091 
L 703 3866 
L 703 4441 
L 1819 4666 
L 2450 4666 
L 2450 531 
L 3481 531 
L 3481 0 
L 794 0 
L 794 531 
z
" transform="scale(0.015625)"/>
       </defs>
       <use xlink:href="#DejaVuSans-31"/>
       <use xlink:href="#DejaVuSans-30" x="63.623047"/>
       <use xlink:href="#DejaVuSans-30" x="127.246094"/>
      </g>
     </g>
    </g>
    <g id="xtick_4">
     <g id="line2d_7">
      <path d="M 209.482259 307.584 
L 209.482259 41.472 
" clip-path="url(#peab60f00a5)" style="fill: none; stroke: #b0b0b0; stroke-width: 0.8; stroke-linecap: square"/>
     </g>
     <g id="line2d_8">
      <g>
       <use xlink:href="#me30b6b2286" x="209.482259" y="307.584" style="stroke: #000000; stroke-width: 0.8"/>
      </g>
     </g>
     <g id="text_4">
      <!-- 150 -->
      <g transform="translate(199.938509 322.182437) scale(0.1 -0.1)">
       <use xlink:href="#DejaVuSans-31"/>
       <use xlink:href="#DejaVuSans-35" x="63.623047"/>
       <use xlink:href="#DejaVuSans-30" x="127.246094"/>
      </g>
     </g>
    </g>
    <g id="xtick_5">
     <g id="line2d_9">
      <path d="M 254.698769 307.584 
L 254.698769 41.472 
" clip-path="url(#peab60f00a5)" style="fill: none; stroke: #b0b0b0; stroke-width: 0.8; stroke-linecap: square"/>
     </g>
     <g id="line2d_10">
      <g>
       <use xlink:href="#me30b6b2286" x="254.698769" y="307.584" style="stroke: #000000; stroke-width: 0.8"/>
      </g>
     </g>
     <g id="text_5">
      <!-- 200 -->
      <g transform="translate(245.155019 322.182437) scale(0.1 -0.1)">
       <defs>
        <path id="DejaVuSans-32" d="M 1228 531 
L 3431 531 
L 3431 0 
L 469 0 
L 469 531 
Q 828 903 1448 1529 
Q 2069 2156 2228 2338 
Q 2531 2678 2651 2914 
Q 2772 3150 2772 3378 
Q 2772 3750 2511 3984 
Q 2250 4219 1831 4219 
Q 1534 4219 1204 4116 
Q 875 4013 500 3803 
L 500 4441 
Q 881 4594 1212 4672 
Q 1544 4750 1819 4750 
Q 2544 4750 2975 4387 
Q 3406 4025 3406 3419 
Q 3406 3131 3298 2873 
Q 3191 2616 2906 2266 
Q 2828 2175 2409 1742 
Q 1991 1309 1228 531 
z
" transform="scale(0.015625)"/>
       </defs>
       <use xlink:href="#DejaVuSans-32"/>
       <use xlink:href="#DejaVuSans-30" x="63.623047"/>
       <use xlink:href="#DejaVuSans-30" x="127.246094"/>
      </g>
     </g>
    </g>
    <g id="xtick_6">
     <g id="line2d_11">
      <path d="M 299.91528 307.584 
L 299.91528 41.472 
" clip-path="url(#peab60f00a5)" style="fill: none; stroke: #b0b0b0; stroke-width: 0.8; stroke-linecap: square"/>
     </g>
     <g id="line2d_12">
      <g>
       <use xlink:href="#me30b6b2286" x="299.91528" y="307.584" style="stroke: #000000; stroke-width: 0.8"/>
      </g>
     </g>
     <g id="text_6">
      <!-- 250 -->
      <g transform="translate(290.37153 322.182437) scale(0.1 -0.1)">
       <use xlink:href="#DejaVuSans-32"/>
       <use xlink:href="#DejaVuSans-35" x="63.623047"/>
       <use xlink:href="#DejaVuSans-30" x="127.246094"/>
      </g>
     </g>
    </g>
    <g id="xtick_7">
     <g id="line2d_13">
      <path d="M 345.13179 307.584 
L 345.13179 41.472 
" clip-path="url(#peab60f00a5)" style="fill: none; stroke: #b0b0b0; stroke-width: 0.8; stroke-linecap: square"/>
     </g>
     <g id="line2d_14">
      <g>
       <use xlink:href="#me30b6b2286" x="345.13179" y="307.584" style="stroke: #000000; stroke-width: 0.8"/>
      </g>
     </g>
     <g id="text_7">
      <!-- 300 -->
      <g transform="translate(335.58804 322.182437) scale(0.1 -0.1)">
       <defs>
        <path id="DejaVuSans-33" d="M 2597 2516 
Q 3050 2419 3304 2112 
Q 3559 1806 3559 1356 
Q 3559 666 3084 287 
Q 2609 -91 1734 -91 
Q 1441 -91 1130 -33 
Q 819 25 488 141 
L 488 750 
Q 750 597 1062 519 
Q 1375 441 1716 441 
Q 2309 441 2620 675 
Q 2931 909 2931 1356 
Q 2931 1769 2642 2001 
Q 2353 2234 1838 2234 
L 1294 2234 
L 1294 2753 
L 1863 2753 
Q 2328 2753 2575 2939 
Q 2822 3125 2822 3475 
Q 2822 3834 2567 4026 
Q 2313 4219 1838 4219 
Q 1578 4219 1281 4162 
Q 984 4106 628 3988 
L 628 4550 
Q 988 4650 1302 4700 
Q 1616 4750 1894 4750 
Q 2613 4750 3031 4423 
Q 3450 4097 3450 3541 
Q 3450 3153 3228 2886 
Q 3006 2619 2597 2516 
z
" transform="scale(0.015625)"/>
       </defs>
       <use xlink:href="#DejaVuSans-33"/>
       <use xlink:href="#DejaVuSans-30" x="63.623047"/>
       <use xlink:href="#DejaVuSans-30" x="127.246094"/>
      </g>
     </g>
    </g>
    <g id="xtick_8">
     <g id="line2d_15">
      <path d="M 390.348301 307.584 
L 390.348301 41.472 
" clip-path="url(#peab60f00a5)" style="fill: none; stroke: #b0b0b0; stroke-width: 0.8; stroke-linecap: square"/>
     </g>
     <g id="line2d_16">
      <g>
       <use xlink:href="#me30b6b2286" x="390.348301" y="307.584" style="stroke: #000000; stroke-width: 0.8"/>
      </g>
     </g>
     <g id="text_8">
      <!-- 350 -->
      <g transform="translate(380.804551 322.182437) scale(0.1 -0.1)">
       <use xlink:href="#DejaVuSans-33"/>
       <use xlink:href="#DejaVuSans-35" x="63.623047"/>
       <use xlink:href="#DejaVuSans-30" x="127.246094"/>
      </g>
     </g>
    </g>
    <g id="text_9">
     <!-- Rotation Angle (degree) -->
     <g transform="translate(176.420156 335.860562) scale(0.1 -0.1)">
      <defs>
       <path id="DejaVuSans-52" d="M 2841 2188 
Q 3044 2119 3236 1894 
Q 3428 1669 3622 1275 
L 4263 0 
L 3584 0 
L 2988 1197 
Q 2756 1666 2539 1819 
Q 2322 1972 1947 1972 
L 1259 1972 
L 1259 0 
L 628 0 
L 628 4666 
L 2053 4666 
Q 2853 4666 3247 4331 
Q 3641 3997 3641 3322 
Q 3641 2881 3436 2590 
Q 3231 2300 2841 2188 
z
M 1259 4147 
L 1259 2491 
L 2053 2491 
Q 2509 2491 2742 2702 
Q 2975 2913 2975 3322 
Q 2975 3731 2742 3939 
Q 2509 4147 2053 4147 
L 1259 4147 
z
" transform="scale(0.015625)"/>
       <path id="DejaVuSans-6f" d="M 1959 3097 
Q 1497 3097 1228 2736 
Q 959 2375 959 1747 
Q 959 1119 1226 758 
Q 1494 397 1959 397 
Q 2419 397 2687 759 
Q 2956 1122 2956 1747 
Q 2956 2369 2687 2733 
Q 2419 3097 1959 3097 
z
M 1959 3584 
Q 2709 3584 3137 3096 
Q 3566 2609 3566 1747 
Q 3566 888 3137 398 
Q 2709 -91 1959 -91 
Q 1206 -91 779 398 
Q 353 888 353 1747 
Q 353 2609 779 3096 
Q 1206 3584 1959 3584 
z
" transform="scale(0.015625)"/>
       <path id="DejaVuSans-74" d="M 1172 4494 
L 1172 3500 
L 2356 3500 
L 2356 3053 
L 1172 3053 
L 1172 1153 
Q 1172 725 1289 603 
Q 1406 481 1766 481 
L 2356 481 
L 2356 0 
L 1766 0 
Q 1100 0 847 248 
Q 594 497 594 1153 
L 594 3053 
L 172 3053 
L 172 3500 
L 594 3500 
L 594 4494 
L 1172 4494 
z
" transform="scale(0.015625)"/>
       <path id="DejaVuSans-61" d="M 2194 1759 
Q 1497 1759 1228 1600 
Q 959 1441 959 1056 
Q 959 750 1161 570 
Q 1363 391 1709 391 
Q 2188 391 2477 730 
Q 2766 1069 2766 1631 
L 2766 1759 
L 2194 1759 
z
M 3341 1997 
L 3341 0 
L 2766 0 
L 2766 531 
Q 2569 213 2275 61 
Q 1981 -91 1556 -91 
Q 1019 -91 701 211 
Q 384 513 384 1019 
Q 384 1609 779 1909 
Q 1175 2209 1959 2209 
L 2766 2209 
L 2766 2266 
Q 2766 2663 2505 2880 
Q 2244 3097 1772 3097 
Q 1472 3097 1187 3025 
Q 903 2953 641 2809 
L 641 3341 
Q 956 3463 1253 3523 
Q 1550 3584 1831 3584 
Q 2591 3584 2966 3190 
Q 3341 2797 3341 1997 
z
" transform="scale(0.015625)"/>
       <path id="DejaVuSans-69" d="M 603 3500 
L 1178 3500 
L 1178 0 
L 603 0 
L 603 3500 
z
M 603 4863 
L 1178 4863 
L 1178 4134 
L 603 4134 
L 603 4863 
z
" transform="scale(0.015625)"/>
       <path id="DejaVuSans-6e" d="M 3513 2113 
L 3513 0 
L 2938 0 
L 2938 2094 
Q 2938 2591 2744 2837 
Q 2550 3084 2163 3084 
Q 1697 3084 1428 2787 
Q 1159 2491 1159 1978 
L 1159 0 
L 581 0 
L 581 3500 
L 1159 3500 
L 1159 2956 
Q 1366 3272 1645 3428 
Q 1925 3584 2291 3584 
Q 2894 3584 3203 3211 
Q 3513 2838 3513 2113 
z
" transform="scale(0.015625)"/>
       <path id="DejaVuSans-20" transform="scale(0.015625)"/>
       <path id="DejaVuSans-41" d="M 2188 4044 
L 1331 1722 
L 3047 1722 
L 2188 4044 
z
M 1831 4666 
L 2547 4666 
L 4325 0 
L 3669 0 
L 3244 1197 
L 1141 1197 
L 716 0 
L 50 0 
L 1831 4666 
z
" transform="scale(0.015625)"/>
       <path id="DejaVuSans-67" d="M 2906 1791 
Q 2906 2416 2648 2759 
Q 2391 3103 1925 3103 
Q 1463 3103 1205 2759 
Q 947 2416 947 1791 
Q 947 1169 1205 825 
Q 1463 481 1925 481 
Q 2391 481 2648 825 
Q 2906 1169 2906 1791 
z
M 3481 434 
Q 3481 -459 3084 -895 
Q 2688 -1331 1869 -1331 
Q 1566 -1331 1297 -1286 
Q 1028 -1241 775 -1147 
L 775 -588 
Q 1028 -725 1275 -790 
Q 1522 -856 1778 -856 
Q 2344 -856 2625 -561 
Q 2906 -266 2906 331 
L 2906 616 
Q 2728 306 2450 153 
Q 2172 0 1784 0 
Q 1141 0 747 490 
Q 353 981 353 1791 
Q 353 2603 747 3093 
Q 1141 3584 1784 3584 
Q 2172 3584 2450 3431 
Q 2728 3278 2906 2969 
L 2906 3500 
L 3481 3500 
L 3481 434 
z
" transform="scale(0.015625)"/>
       <path id="DejaVuSans-6c" d="M 603 4863 
L 1178 4863 
L 1178 0 
L 603 0 
L 603 4863 
z
" transform="scale(0.015625)"/>
       <path id="DejaVuSans-65" d="M 3597 1894 
L 3597 1613 
L 953 1613 
Q 991 1019 1311 708 
Q 1631 397 2203 397 
Q 2534 397 2845 478 
Q 3156 559 3463 722 
L 3463 178 
Q 3153 47 2828 -22 
Q 2503 -91 2169 -91 
Q 1331 -91 842 396 
Q 353 884 353 1716 
Q 353 2575 817 3079 
Q 1281 3584 2069 3584 
Q 2775 3584 3186 3129 
Q 3597 2675 3597 1894 
z
M 3022 2063 
Q 3016 2534 2758 2815 
Q 2500 3097 2075 3097 
Q 1594 3097 1305 2825 
Q 1016 2553 972 2059 
L 3022 2063 
z
" transform="scale(0.015625)"/>
       <path id="DejaVuSans-28" d="M 1984 4856 
Q 1566 4138 1362 3434 
Q 1159 2731 1159 2009 
Q 1159 1288 1364 580 
Q 1569 -128 1984 -844 
L 1484 -844 
Q 1016 -109 783 600 
Q 550 1309 550 2009 
Q 550 2706 781 3412 
Q 1013 4119 1484 4856 
L 1984 4856 
z
" transform="scale(0.015625)"/>
       <path id="DejaVuSans-64" d="M 2906 2969 
L 2906 4863 
L 3481 4863 
L 3481 0 
L 2906 0 
L 2906 525 
Q 2725 213 2448 61 
Q 2172 -91 1784 -91 
Q 1150 -91 751 415 
Q 353 922 353 1747 
Q 353 2572 751 3078 
Q 1150 3584 1784 3584 
Q 2172 3584 2448 3432 
Q 2725 3281 2906 2969 
z
M 947 1747 
Q 947 1113 1208 752 
Q 1469 391 1925 391 
Q 2381 391 2643 752 
Q 2906 1113 2906 1747 
Q 2906 2381 2643 2742 
Q 2381 3103 1925 3103 
Q 1469 3103 1208 2742 
Q 947 2381 947 1747 
z
" transform="scale(0.015625)"/>
       <path id="DejaVuSans-72" d="M 2631 2963 
Q 2534 3019 2420 3045 
Q 2306 3072 2169 3072 
Q 1681 3072 1420 2755 
Q 1159 2438 1159 1844 
L 1159 0 
L 581 0 
L 581 3500 
L 1159 3500 
L 1159 2956 
Q 1341 3275 1631 3429 
Q 1922 3584 2338 3584 
Q 2397 3584 2469 3576 
Q 2541 3569 2628 3553 
L 2631 2963 
z
" transform="scale(0.015625)"/>
       <path id="DejaVuSans-29" d="M 513 4856 
L 1013 4856 
Q 1481 4119 1714 3412 
Q 1947 2706 1947 2009 
Q 1947 1309 1714 600 
Q 1481 -109 1013 -844 
L 513 -844 
Q 928 -128 1133 580 
Q 1338 1288 1338 2009 
Q 1338 2731 1133 3434 
Q 928 4138 513 4856 
z
" transform="scale(0.015625)"/>
      </defs>
      <use xlink:href="#DejaVuSans-52"/>
      <use xlink:href="#DejaVuSans-6f" x="64.982422"/>
      <use xlink:href="#DejaVuSans-74" x="126.164062"/>
      <use xlink:href="#DejaVuSans-61" x="165.373047"/>
      <use xlink:href="#DejaVuSans-74" x="226.652344"/>
      <use xlink:href="#DejaVuSans-69" x="265.861328"/>
      <use xlink:href="#DejaVuSans-6f" x="293.644531"/>
      <use xlink:href="#DejaVuSans-6e" x="354.826172"/>
      <use xlink:href="#DejaVuSans-20" x="418.205078"/>
      <use xlink:href="#DejaVuSans-41" x="449.992188"/>
      <use xlink:href="#DejaVuSans-6e" x="518.400391"/>
      <use xlink:href="#DejaVuSans-67" x="581.779297"/>
      <use xlink:href="#DejaVuSans-6c" x="645.255859"/>
      <use xlink:href="#DejaVuSans-65" x="673.039062"/>
      <use xlink:href="#DejaVuSans-20" x="734.5625"/>
      <use xlink:href="#DejaVuSans-28" x="766.349609"/>
      <use xlink:href="#DejaVuSans-64" x="805.363281"/>
      <use xlink:href="#DejaVuSans-65" x="868.839844"/>
      <use xlink:href="#DejaVuSans-67" x="930.363281"/>
      <use xlink:href="#DejaVuSans-72" x="993.839844"/>
      <use xlink:href="#DejaVuSans-65" x="1032.703125"/>
      <use xlink:href="#DejaVuSans-65" x="1094.226562"/>
      <use xlink:href="#DejaVuSans-29" x="1155.75"/>
     </g>
    </g>
   </g>
   <g id="matplotlib.axis_2">
    <g id="ytick_1">
     <g id="line2d_17">
      <path d="M 57.6 290.754463 
L 414.72 290.754463 
" clip-path="url(#peab60f00a5)" style="fill: none; stroke: #b0b0b0; stroke-width: 0.8; stroke-linecap: square"/>
     </g>
     <g id="line2d_18">
      <defs>
       <path id="mbac1f6a05f" d="M 0 0 
L -3.5 0 
" style="stroke: #000000; stroke-width: 0.8"/>
      </defs>
      <g>
       <use xlink:href="#mbac1f6a05f" x="57.6" y="290.754463" style="stroke: #000000; stroke-width: 0.8"/>
      </g>
     </g>
     <g id="text_10">
      <!-- 0.2 -->
      <g transform="translate(34.696875 294.553682) scale(0.1 -0.1)">
       <defs>
        <path id="DejaVuSans-2e" d="M 684 794 
L 1344 794 
L 1344 0 
L 684 0 
L 684 794 
z
" transform="scale(0.015625)"/>
       </defs>
       <use xlink:href="#DejaVuSans-30"/>
       <use xlink:href="#DejaVuSans-2e" x="63.623047"/>
       <use xlink:href="#DejaVuSans-32" x="95.410156"/>
      </g>
     </g>
    </g>
    <g id="ytick_2">
     <g id="line2d_19">
      <path d="M 57.6 254.866058 
L 414.72 254.866058 
" clip-path="url(#peab60f00a5)" style="fill: none; stroke: #b0b0b0; stroke-width: 0.8; stroke-linecap: square"/>
     </g>
     <g id="line2d_20">
      <g>
       <use xlink:href="#mbac1f6a05f" x="57.6" y="254.866058" style="stroke: #000000; stroke-width: 0.8"/>
      </g>
     </g>
     <g id="text_11">
      <!-- 0.3 -->
      <g transform="translate(34.696875 258.665277) scale(0.1 -0.1)">
       <use xlink:href="#DejaVuSans-30"/>
       <use xlink:href="#DejaVuSans-2e" x="63.623047"/>
       <use xlink:href="#DejaVuSans-33" x="95.410156"/>
      </g>
     </g>
    </g>
    <g id="ytick_3">
     <g id="line2d_21">
      <path d="M 57.6 218.977653 
L 414.72 218.977653 
" clip-path="url(#peab60f00a5)" style="fill: none; stroke: #b0b0b0; stroke-width: 0.8; stroke-linecap: square"/>
     </g>
     <g id="line2d_22">
      <g>
       <use xlink:href="#mbac1f6a05f" x="57.6" y="218.977653" style="stroke: #000000; stroke-width: 0.8"/>
      </g>
     </g>
     <g id="text_12">
      <!-- 0.4 -->
      <g transform="translate(34.696875 222.776872) scale(0.1 -0.1)">
       <defs>
        <path id="DejaVuSans-34" d="M 2419 4116 
L 825 1625 
L 2419 1625 
L 2419 4116 
z
M 2253 4666 
L 3047 4666 
L 3047 1625 
L 3713 1625 
L 3713 1100 
L 3047 1100 
L 3047 0 
L 2419 0 
L 2419 1100 
L 313 1100 
L 313 1709 
L 2253 4666 
z
" transform="scale(0.015625)"/>
       </defs>
       <use xlink:href="#DejaVuSans-30"/>
       <use xlink:href="#DejaVuSans-2e" x="63.623047"/>
       <use xlink:href="#DejaVuSans-34" x="95.410156"/>
      </g>
     </g>
    </g>
    <g id="ytick_4">
     <g id="line2d_23">
      <path d="M 57.6 183.089248 
L 414.72 183.089248 
" clip-path="url(#peab60f00a5)" style="fill: none; stroke: #b0b0b0; stroke-width: 0.8; stroke-linecap: square"/>
     </g>
     <g id="line2d_24">
      <g>
       <use xlink:href="#mbac1f6a05f" x="57.6" y="183.089248" style="stroke: #000000; stroke-width: 0.8"/>
      </g>
     </g>
     <g id="text_13">
      <!-- 0.5 -->
      <g transform="translate(34.696875 186.888467) scale(0.1 -0.1)">
       <use xlink:href="#DejaVuSans-30"/>
       <use xlink:href="#DejaVuSans-2e" x="63.623047"/>
       <use xlink:href="#DejaVuSans-35" x="95.410156"/>
      </g>
     </g>
    </g>
    <g id="ytick_5">
     <g id="line2d_25">
      <path d="M 57.6 147.200843 
L 414.72 147.200843 
" clip-path="url(#peab60f00a5)" style="fill: none; stroke: #b0b0b0; stroke-width: 0.8; stroke-linecap: square"/>
     </g>
     <g id="line2d_26">
      <g>
       <use xlink:href="#mbac1f6a05f" x="57.6" y="147.200843" style="stroke: #000000; stroke-width: 0.8"/>
      </g>
     </g>
     <g id="text_14">
      <!-- 0.6 -->
      <g transform="translate(34.696875 151.000062) scale(0.1 -0.1)">
       <defs>
        <path id="DejaVuSans-36" d="M 2113 2584 
Q 1688 2584 1439 2293 
Q 1191 2003 1191 1497 
Q 1191 994 1439 701 
Q 1688 409 2113 409 
Q 2538 409 2786 701 
Q 3034 994 3034 1497 
Q 3034 2003 2786 2293 
Q 2538 2584 2113 2584 
z
M 3366 4563 
L 3366 3988 
Q 3128 4100 2886 4159 
Q 2644 4219 2406 4219 
Q 1781 4219 1451 3797 
Q 1122 3375 1075 2522 
Q 1259 2794 1537 2939 
Q 1816 3084 2150 3084 
Q 2853 3084 3261 2657 
Q 3669 2231 3669 1497 
Q 3669 778 3244 343 
Q 2819 -91 2113 -91 
Q 1303 -91 875 529 
Q 447 1150 447 2328 
Q 447 3434 972 4092 
Q 1497 4750 2381 4750 
Q 2619 4750 2861 4703 
Q 3103 4656 3366 4563 
z
" transform="scale(0.015625)"/>
       </defs>
       <use xlink:href="#DejaVuSans-30"/>
       <use xlink:href="#DejaVuSans-2e" x="63.623047"/>
       <use xlink:href="#DejaVuSans-36" x="95.410156"/>
      </g>
     </g>
    </g>
    <g id="ytick_6">
     <g id="line2d_27">
      <path d="M 57.6 111.312438 
L 414.72 111.312438 
" clip-path="url(#peab60f00a5)" style="fill: none; stroke: #b0b0b0; stroke-width: 0.8; stroke-linecap: square"/>
     </g>
     <g id="line2d_28">
      <g>
       <use xlink:href="#mbac1f6a05f" x="57.6" y="111.312438" style="stroke: #000000; stroke-width: 0.8"/>
      </g>
     </g>
     <g id="text_15">
      <!-- 0.7 -->
      <g transform="translate(34.696875 115.111657) scale(0.1 -0.1)">
       <defs>
        <path id="DejaVuSans-37" d="M 525 4666 
L 3525 4666 
L 3525 4397 
L 1831 0 
L 1172 0 
L 2766 4134 
L 525 4134 
L 525 4666 
z
" transform="scale(0.015625)"/>
       </defs>
       <use xlink:href="#DejaVuSans-30"/>
       <use xlink:href="#DejaVuSans-2e" x="63.623047"/>
       <use xlink:href="#DejaVuSans-37" x="95.410156"/>
      </g>
     </g>
    </g>
    <g id="ytick_7">
     <g id="line2d_29">
      <path d="M 57.6 75.424033 
L 414.72 75.424033 
" clip-path="url(#peab60f00a5)" style="fill: none; stroke: #b0b0b0; stroke-width: 0.8; stroke-linecap: square"/>
     </g>
     <g id="line2d_30">
      <g>
       <use xlink:href="#mbac1f6a05f" x="57.6" y="75.424033" style="stroke: #000000; stroke-width: 0.8"/>
      </g>
     </g>
     <g id="text_16">
      <!-- 0.8 -->
      <g transform="translate(34.696875 79.223252) scale(0.1 -0.1)">
       <defs>
        <path id="DejaVuSans-38" d="M 2034 2216 
Q 1584 2216 1326 1975 
Q 1069 1734 1069 1313 
Q 1069 891 1326 650 
Q 1584 409 2034 409 
Q 2484 409 2743 651 
Q 3003 894 3003 1313 
Q 3003 1734 2745 1975 
Q 2488 2216 2034 2216 
z
M 1403 2484 
Q 997 2584 770 2862 
Q 544 3141 544 3541 
Q 544 4100 942 4425 
Q 1341 4750 2034 4750 
Q 2731 4750 3128 4425 
Q 3525 4100 3525 3541 
Q 3525 3141 3298 2862 
Q 3072 2584 2669 2484 
Q 3125 2378 3379 2068 
Q 3634 1759 3634 1313 
Q 3634 634 3220 271 
Q 2806 -91 2034 -91 
Q 1263 -91 848 271 
Q 434 634 434 1313 
Q 434 1759 690 2068 
Q 947 2378 1403 2484 
z
M 1172 3481 
Q 1172 3119 1398 2916 
Q 1625 2713 2034 2713 
Q 2441 2713 2670 2916 
Q 2900 3119 2900 3481 
Q 2900 3844 2670 4047 
Q 2441 4250 2034 4250 
Q 1625 4250 1398 4047 
Q 1172 3844 1172 3481 
z
" transform="scale(0.015625)"/>
       </defs>
       <use xlink:href="#DejaVuSans-30"/>
       <use xlink:href="#DejaVuSans-2e" x="63.623047"/>
       <use xlink:href="#DejaVuSans-38" x="95.410156"/>
      </g>
     </g>
    </g>
    <g id="text_17">
     <!-- Accuracy -->
     <g transform="translate(28.617187 197.356125) rotate(-90) scale(0.1 -0.1)">
      <defs>
       <path id="DejaVuSans-63" d="M 3122 3366 
L 3122 2828 
Q 2878 2963 2633 3030 
Q 2388 3097 2138 3097 
Q 1578 3097 1268 2742 
Q 959 2388 959 1747 
Q 959 1106 1268 751 
Q 1578 397 2138 397 
Q 2388 397 2633 464 
Q 2878 531 3122 666 
L 3122 134 
Q 2881 22 2623 -34 
Q 2366 -91 2075 -91 
Q 1284 -91 818 406 
Q 353 903 353 1747 
Q 353 2603 823 3093 
Q 1294 3584 2113 3584 
Q 2378 3584 2631 3529 
Q 2884 3475 3122 3366 
z
" transform="scale(0.015625)"/>
       <path id="DejaVuSans-75" d="M 544 1381 
L 544 3500 
L 1119 3500 
L 1119 1403 
Q 1119 906 1312 657 
Q 1506 409 1894 409 
Q 2359 409 2629 706 
Q 2900 1003 2900 1516 
L 2900 3500 
L 3475 3500 
L 3475 0 
L 2900 0 
L 2900 538 
Q 2691 219 2414 64 
Q 2138 -91 1772 -91 
Q 1169 -91 856 284 
Q 544 659 544 1381 
z
M 1991 3584 
L 1991 3584 
z
" transform="scale(0.015625)"/>
       <path id="DejaVuSans-79" d="M 2059 -325 
Q 1816 -950 1584 -1140 
Q 1353 -1331 966 -1331 
L 506 -1331 
L 506 -850 
L 844 -850 
Q 1081 -850 1212 -737 
Q 1344 -625 1503 -206 
L 1606 56 
L 191 3500 
L 800 3500 
L 1894 763 
L 2988 3500 
L 3597 3500 
L 2059 -325 
z
" transform="scale(0.015625)"/>
      </defs>
      <use xlink:href="#DejaVuSans-41"/>
      <use xlink:href="#DejaVuSans-63" x="66.658203"/>
      <use xlink:href="#DejaVuSans-63" x="121.638672"/>
      <use xlink:href="#DejaVuSans-75" x="176.619141"/>
      <use xlink:href="#DejaVuSans-72" x="239.998047"/>
      <use xlink:href="#DejaVuSans-61" x="281.111328"/>
      <use xlink:href="#DejaVuSans-63" x="342.390625"/>
      <use xlink:href="#DejaVuSans-79" x="397.371094"/>
     </g>
    </g>
   </g>
   <g id="line2d_31">
    <path d="M 73.832727 124.016928 
L 74.737057 124.016928 
L 75.641388 124.864476 
L 76.545718 138.956692 
L 77.450048 145.404323 
L 78.354378 149.494847 
L 79.258709 151.586636 
L 81.971699 155.396095 
L 83.78036 157.881418 
L 84.68469 158.768722 
L 91.015001 167.375589 
L 91.919331 168.986886 
L 95.536652 173.789966 
L 99.153973 180.955177 
L 107.292945 199.886126 
L 108.197275 201.531606 
L 112.718926 212.61094 
L 118.144908 225.234418 
L 120.857898 230.872099 
L 122.666559 235.218799 
L 123.570889 237.102553 
L 126.283879 241.603603 
L 127.18821 242.795615 
L 128.99687 245.727774 
L 131.709861 249.277777 
L 133.518521 251.577883 
L 134.422851 253.056273 
L 135.327182 254.110073 
L 138.944502 257.012219 
L 139.848833 257.971548 
L 141.657493 259.377368 
L 142.561823 260.372838 
L 144.370484 261.831196 
L 145.274814 262.749862 
L 147.083474 263.786202 
L 149.796465 264.68738 
L 150.700795 265.524887 
L 152.509456 267.506477 
L 155.222446 264.753393 
L 156.126776 263.976353 
L 157.031107 263.567738 
L 157.935437 265.145238 
L 158.839767 266.410646 
L 162.457088 269.170897 
L 164.265748 270.843964 
L 167.883069 273.833254 
L 170.59606 275.217959 
L 171.50039 275.522696 
L 172.40472 276.041002 
L 176.022041 276.278552 
L 176.926371 276.114753 
L 177.830701 276.211376 
L 178.735032 276.108128 
L 180.543692 276.233754 
L 181.448022 276.067257 
L 182.352352 276.086086 
L 184.161013 275.837636 
L 185.065343 276.048103 
L 185.969673 275.903761 
L 186.874004 275.526223 
L 188.682664 275.452694 
L 189.586994 275.18845 
L 193.204315 274.847149 
L 194.108645 274.55015 
L 195.917306 273.655404 
L 196.821636 273.477579 
L 198.630296 272.804208 
L 201.343287 271.095801 
L 202.247617 270.585367 
L 204.960608 269.676048 
L 205.864938 268.96665 
L 206.769268 268.4538 
L 207.673598 268.085546 
L 209.482259 267.000408 
L 214.00391 263.556457 
L 215.81257 262.739328 
L 216.7169 262.095555 
L 218.525561 260.103951 
L 219.429891 259.483263 
L 220.334221 258.53346 
L 222.142882 257.14006 
L 223.951542 256.093231 
L 228.473193 252.756696 
L 229.377523 251.761781 
L 230.281854 250.934547 
L 231.186184 250.448432 
L 232.994844 250.894803 
L 233.899174 251.887676 
L 235.707835 249.221818 
L 237.516495 247.068933 
L 238.420826 246.007571 
L 239.325156 247.119516 
L 240.229486 247.696784 
L 242.038146 248.156353 
L 242.942477 248.113144 
L 246.559797 249.172235 
L 247.464128 249.468865 
L 251.985779 251.784166 
L 256.50743 253.764223 
L 257.41176 253.867229 
L 258.31609 254.175265 
L 261.933411 256.344977 
L 263.742071 257.804212 
L 268.263722 260.378094 
L 269.168053 261.039918 
L 270.072383 261.427407 
L 270.976713 262.066843 
L 274.594034 265.625782 
L 276.402694 266.910801 
L 279.115685 268.586571 
L 280.020015 269.292459 
L 280.924345 269.726782 
L 284.541666 271.979385 
L 287.254657 272.927165 
L 289.063317 273.614467 
L 289.967648 274.047251 
L 296.297959 275.667423 
L 297.202289 275.819545 
L 304.436931 275.609286 
L 307.149921 275.423924 
L 308.958582 275.206539 
L 310.767242 274.295823 
L 312.575903 273.661142 
L 314.384563 273.620778 
L 315.288893 273.769412 
L 318.001884 268.999099 
L 318.906214 267.661161 
L 319.810544 266.665169 
L 321.619205 267.929635 
L 324.332195 268.402483 
L 326.140856 268.984076 
L 327.949516 269.817999 
L 328.853847 269.966493 
L 329.758177 270.340591 
L 330.662507 270.526547 
L 334.279828 270.381269 
L 335.184158 270.161208 
L 337.897149 268.675373 
L 339.705809 266.896057 
L 341.514469 265.990625 
L 346.036121 262.414145 
L 346.940451 261.759824 
L 349.653441 259.239449 
L 351.462102 257.793736 
L 352.366432 256.592992 
L 353.270762 255.652287 
L 355.079423 254.070598 
L 357.792413 250.368877 
L 358.696743 248.844733 
L 359.601074 247.688333 
L 362.314064 242.936398 
L 364.122725 239.526923 
L 367.740046 233.1122 
L 370.453036 226.725442 
L 371.357366 224.572548 
L 373.166027 220.695867 
L 374.974687 215.847825 
L 375.879017 213.781407 
L 376.783348 211.218217 
L 379.496338 204.777108 
L 382.209329 196.737457 
L 385.82665 187.961615 
L 388.53964 181.893525 
L 391.252631 176.411647 
L 393.061291 173.012028 
L 393.965622 171.564982 
L 395.774282 170.784468 
L 396.678612 171.110558 
L 398.487273 162.240288 
L 398.487273 162.240288 
" clip-path="url(#peab60f00a5)" style="fill: none; stroke: #1f77b4; stroke-width: 1.5; stroke-linecap: square"/>
   </g>
   <g id="line2d_32">
    <path d="M 73.832727 53.568 
L 74.737057 53.568 
L 75.641388 55.87227 
L 76.545718 56.329286 
L 77.450048 56.487548 
L 78.354378 56.15551 
L 79.258709 57.076625 
L 81.971699 59.073852 
L 82.876029 60.081085 
L 84.68469 62.818545 
L 85.58902 64.541421 
L 86.49335 66.693683 
L 89.206341 75.259488 
L 90.110671 78.282648 
L 91.919331 85.663015 
L 92.823662 89.758127 
L 94.632322 99.316161 
L 96.440983 110.375955 
L 98.249643 122.59474 
L 103.675624 160.225122 
L 106.388615 177.112848 
L 108.197275 188.065353 
L 110.005936 196.751978 
L 112.718926 208.349607 
L 114.527587 215.297879 
L 116.336247 221.960296 
L 118.144908 228.032303 
L 122.666559 240.932689 
L 126.283879 249.207587 
L 127.18821 251.043594 
L 128.99687 253.344406 
L 129.9012 254.743731 
L 131.709861 256.768106 
L 132.614191 257.51171 
L 133.518521 257.670765 
L 136.231512 257.540306 
L 137.135842 257.30864 
L 138.944502 256.399477 
L 141.657493 255.240214 
L 142.561823 254.588912 
L 143.466153 253.776619 
L 144.370484 253.156877 
L 146.179144 251.513896 
L 147.987805 249.476078 
L 148.892135 248.565054 
L 150.700795 246.268242 
L 152.509456 244.347258 
L 153.413786 243.769755 
L 155.222446 242.182156 
L 156.126776 241.505352 
L 157.935437 240.977196 
L 159.744097 240.729565 
L 161.552758 241.279438 
L 162.457088 241.877283 
L 164.265748 243.240538 
L 165.170079 243.976034 
L 166.074409 244.885612 
L 170.59606 250.379909 
L 171.50039 251.628848 
L 174.213381 256.100496 
L 176.926371 261.141607 
L 178.735032 264.769441 
L 179.639362 266.316419 
L 183.256683 273.250989 
L 185.065343 276.011771 
L 186.874004 278.712041 
L 188.682664 281.178111 
L 189.586994 282.056793 
L 192.299985 283.910062 
L 194.108645 284.571326 
L 195.917306 284.986724 
L 198.630296 284.899668 
L 199.534626 284.684836 
L 200.438957 284.344345 
L 201.343287 284.20299 
L 203.151947 284.405211 
L 204.056278 284.25418 
L 204.960608 283.884978 
L 206.769268 282.587911 
L 208.577929 281.098014 
L 209.482259 280.064674 
L 213.09958 275.12128 
L 214.90824 271.976559 
L 217.621231 266.274912 
L 219.429891 261.855591 
L 227.568863 244.352605 
L 229.377523 240.43001 
L 232.090514 235.221319 
L 232.994844 233.858938 
L 237.516495 228.89047 
L 239.325156 227.714037 
L 240.229486 227.342836 
L 241.133816 226.77548 
L 242.038146 226.422769 
L 243.846807 226.205435 
L 245.655467 226.15931 
L 246.559797 226.255811 
L 247.464128 226.75179 
L 249.272788 228.068616 
L 250.177118 228.89293 
L 251.985779 231.373775 
L 254.698769 235.695729 
L 255.6031 237.189279 
L 260.124751 246.049312 
L 261.933411 250.405716 
L 264.646402 255.776591 
L 266.455062 259.087995 
L 270.976713 267.504617 
L 272.785374 270.085678 
L 276.402694 274.320362 
L 278.211355 276.12143 
L 280.020015 277.756507 
L 280.924345 278.683064 
L 282.733006 280.084803 
L 284.541666 281.591298 
L 287.254657 283.104272 
L 289.967648 284.081226 
L 291.776308 284.178461 
L 292.680638 284.125471 
L 294.489299 283.305247 
L 295.393629 282.628987 
L 297.202289 280.775991 
L 299.01095 278.994775 
L 302.62827 274.481883 
L 305.341261 271.186441 
L 308.958582 265.335099 
L 310.767242 262.182838 
L 314.384563 255.664789 
L 316.193224 252.907532 
L 318.001884 249.917985 
L 318.906214 248.643494 
L 322.523535 245.04565 
L 323.427865 244.412713 
L 325.236526 243.609602 
L 327.045186 243.564518 
L 330.662507 244.162613 
L 332.471167 245.255273 
L 335.184158 246.552847 
L 336.088488 246.964275 
L 336.992818 247.63961 
L 337.897149 248.566819 
L 339.705809 250.185004 
L 341.514469 252.220321 
L 342.4188 253.030399 
L 343.32313 254.258317 
L 346.036121 257.023094 
L 346.940451 257.722545 
L 348.749111 258.466411 
L 349.653441 258.892331 
L 350.557772 259.455102 
L 351.462102 260.34919 
L 353.270762 260.398762 
L 355.079423 259.480694 
L 355.983753 258.739301 
L 356.888083 258.294555 
L 357.792413 257.678954 
L 358.696743 256.830627 
L 360.505404 254.648224 
L 362.314064 251.578446 
L 364.122725 247.903303 
L 365.931385 244.658709 
L 367.740046 240.283541 
L 369.548706 234.69868 
L 371.357366 228.500032 
L 374.070357 216.562823 
L 375.879017 206.959608 
L 377.687678 196.103933 
L 382.209329 164.349277 
L 384.92232 145.411718 
L 388.53964 122.438141 
L 391.252631 106.993522 
L 393.061291 98.36757 
L 395.774282 87.304433 
L 396.678612 84.210719 
L 398.487273 78.879554 
L 398.487273 78.879554 
" clip-path="url(#peab60f00a5)" style="fill: none; stroke: #ff7f0e; stroke-width: 1.5; stroke-linecap: square"/>
   </g>
   <g id="line2d_33">
    <path d="M 73.832727 124.268146 
L 74.737057 124.268146 
L 75.641388 126.42675 
L 76.545718 127.541833 
L 78.354378 128.10008 
L 79.258709 129.092226 
L 81.067369 131.939516 
L 81.971699 132.987778 
L 82.876029 134.530843 
L 85.58902 140.093339 
L 86.49335 141.91483 
L 87.39768 144.607635 
L 90.110671 153.863679 
L 91.015001 156.778087 
L 96.440983 179.606865 
L 98.249643 188.00637 
L 103.675624 211.371766 
L 108.197275 228.851379 
L 112.718926 243.642125 
L 115.431917 251.753401 
L 116.336247 254.08928 
L 117.240577 255.932455 
L 118.144908 258.072694 
L 120.857898 263.169157 
L 121.762228 265.080005 
L 126.283879 271.110234 
L 128.09254 272.967242 
L 130.805531 275.192132 
L 131.709861 275.259067 
L 132.614191 275.969497 
L 133.518521 276.220826 
L 134.422851 276.350007 
L 135.327182 276.606314 
L 136.231512 276.621491 
L 137.135842 276.785965 
L 138.944502 276.858918 
L 141.657493 276.358713 
L 142.561823 276.010941 
L 145.274814 275.303572 
L 146.179144 274.605499 
L 148.892135 273.418852 
L 150.700795 272.483779 
L 154.318116 271.421818 
L 156.126776 271.06509 
L 158.839767 271.032469 
L 159.744097 270.833412 
L 160.648427 270.76552 
L 161.552758 270.858742 
L 162.457088 271.455862 
L 164.265748 272.23611 
L 166.074409 273.262886 
L 167.883069 274.213 
L 170.59606 275.58595 
L 171.50039 276.266609 
L 172.40472 277.317043 
L 174.213381 278.648162 
L 175.117711 279.629113 
L 176.022041 280.325347 
L 178.735032 282.918984 
L 180.543692 284.103037 
L 181.448022 284.850726 
L 182.352352 285.746154 
L 183.256683 286.272108 
L 186.874004 289.143594 
L 191.395655 292.751188 
L 192.299985 293.204685 
L 194.108645 293.637789 
L 195.012975 294.095936 
L 197.725966 294.653855 
L 199.534626 294.499745 
L 201.343287 294.016033 
L 204.056278 293.420834 
L 204.960608 292.963988 
L 205.864938 292.380562 
L 206.769268 291.981089 
L 208.577929 290.632259 
L 210.386589 289.139911 
L 211.290919 288.518999 
L 212.195249 287.647949 
L 214.00391 286.273655 
L 215.81257 284.589134 
L 216.7169 283.497378 
L 219.429891 280.798447 
L 223.047212 276.898729 
L 224.855872 274.561492 
L 227.568863 271.466051 
L 230.281854 268.282619 
L 232.994844 265.484582 
L 237.516495 261.980031 
L 241.133816 260.824255 
L 242.038146 260.354045 
L 242.942477 260.052877 
L 244.751137 260.31235 
L 248.368458 261.051741 
L 250.177118 262.171524 
L 251.985779 263.313978 
L 252.890109 264.023154 
L 254.698769 266.005651 
L 258.31609 270.209358 
L 259.22042 271.377425 
L 260.124751 272.091334 
L 261.933411 274.25383 
L 264.646402 277.388623 
L 265.550732 278.46681 
L 267.359392 280.366138 
L 268.263722 281.530579 
L 270.072383 283.549768 
L 270.976713 284.736786 
L 271.881043 285.718971 
L 277.307025 290.102981 
L 278.211355 291.040218 
L 280.020015 292.256374 
L 280.924345 292.834717 
L 282.733006 293.592564 
L 283.637336 293.926034 
L 284.541666 294.55992 
L 289.967648 295.488 
L 293.584968 294.846465 
L 297.202289 293.212185 
L 299.91528 291.808779 
L 302.62827 289.848758 
L 305.341261 287.604374 
L 307.149921 286.168377 
L 311.671573 281.974913 
L 313.480233 279.880128 
L 314.384563 279.338228 
L 316.193224 277.566765 
L 318.001884 275.749311 
L 318.906214 274.974502 
L 319.810544 274.388427 
L 321.619205 273.529435 
L 322.523535 273.374974 
L 323.427865 273.017041 
L 324.332195 272.870753 
L 325.236526 272.846759 
L 326.140856 272.491404 
L 327.045186 272.257715 
L 331.566837 272.252054 
L 332.471167 272.537561 
L 333.375498 272.679673 
L 334.279828 272.527646 
L 337.897149 273.043163 
L 338.801479 273.267503 
L 339.705809 273.652439 
L 346.036121 275.296512 
L 347.844781 275.265192 
L 350.557772 275.687611 
L 351.462102 275.927436 
L 355.079423 275.703593 
L 355.983753 275.500392 
L 357.792413 275.253047 
L 358.696743 275.159499 
L 360.505404 274.208553 
L 361.409734 273.207402 
L 362.314064 272.406854 
L 364.122725 270.03986 
L 365.931385 267.603289 
L 367.740046 264.122354 
L 369.548706 260.124939 
L 371.357366 255.852369 
L 373.166027 250.478737 
L 374.974687 244.896917 
L 376.783348 238.878018 
L 378.592008 231.95456 
L 381.304999 220.707851 
L 386.73098 195.69908 
L 390.348301 178.994819 
L 391.252631 175.000755 
L 394.869952 161.268863 
L 395.774282 158.035341 
L 398.487273 150.083391 
L 398.487273 150.083391 
" clip-path="url(#peab60f00a5)" style="fill: none; stroke: #2ca02c; stroke-width: 1.5; stroke-linecap: square"/>
   </g>
   <g id="patch_3">
    <path d="M 57.6 307.584 
L 57.6 41.472 
" style="fill: none; stroke: #000000; stroke-width: 0.8; stroke-linejoin: miter; stroke-linecap: square"/>
   </g>
   <g id="patch_4">
    <path d="M 414.72 307.584 
L 414.72 41.472 
" style="fill: none; stroke: #000000; stroke-width: 0.8; stroke-linejoin: miter; stroke-linecap: square"/>
   </g>
   <g id="patch_5">
    <path d="M 57.6 307.584 
L 414.72 307.584 
" style="fill: none; stroke: #000000; stroke-width: 0.8; stroke-linejoin: miter; stroke-linecap: square"/>
   </g>
   <g id="patch_6">
    <path d="M 57.6 41.472 
L 414.72 41.472 
" style="fill: none; stroke: #000000; stroke-width: 0.8; stroke-linejoin: miter; stroke-linecap: square"/>
   </g>
   <g id="legend_1">
    <g id="patch_7">
     <path d="M 178.89125 93.7845 
L 293.42875 93.7845 
Q 295.42875 93.7845 295.42875 91.7845 
L 295.42875 48.472 
Q 295.42875 46.472 293.42875 46.472 
L 178.89125 46.472 
Q 176.89125 46.472 176.89125 48.472 
L 176.89125 91.7845 
Q 176.89125 93.7845 178.89125 93.7845 
z
" style="fill: #ffffff; opacity: 0.8; stroke: #cccccc; stroke-linejoin: miter"/>
    </g>
    <g id="line2d_34">
     <path d="M 180.89125 54.570438 
L 190.89125 54.570438 
L 200.89125 54.570438 
" style="fill: none; stroke: #1f77b4; stroke-width: 1.5; stroke-linecap: square"/>
    </g>
    <g id="text_18">
     <!-- GATEDGCN -->
     <g transform="translate(208.89125 58.070438) scale(0.1 -0.1)">
      <defs>
       <path id="DejaVuSans-47" d="M 3809 666 
L 3809 1919 
L 2778 1919 
L 2778 2438 
L 4434 2438 
L 4434 434 
Q 4069 175 3628 42 
Q 3188 -91 2688 -91 
Q 1594 -91 976 548 
Q 359 1188 359 2328 
Q 359 3472 976 4111 
Q 1594 4750 2688 4750 
Q 3144 4750 3555 4637 
Q 3966 4525 4313 4306 
L 4313 3634 
Q 3963 3931 3569 4081 
Q 3175 4231 2741 4231 
Q 1884 4231 1454 3753 
Q 1025 3275 1025 2328 
Q 1025 1384 1454 906 
Q 1884 428 2741 428 
Q 3075 428 3337 486 
Q 3600 544 3809 666 
z
" transform="scale(0.015625)"/>
       <path id="DejaVuSans-54" d="M -19 4666 
L 3928 4666 
L 3928 4134 
L 2272 4134 
L 2272 0 
L 1638 0 
L 1638 4134 
L -19 4134 
L -19 4666 
z
" transform="scale(0.015625)"/>
       <path id="DejaVuSans-45" d="M 628 4666 
L 3578 4666 
L 3578 4134 
L 1259 4134 
L 1259 2753 
L 3481 2753 
L 3481 2222 
L 1259 2222 
L 1259 531 
L 3634 531 
L 3634 0 
L 628 0 
L 628 4666 
z
" transform="scale(0.015625)"/>
       <path id="DejaVuSans-44" d="M 1259 4147 
L 1259 519 
L 2022 519 
Q 2988 519 3436 956 
Q 3884 1394 3884 2338 
Q 3884 3275 3436 3711 
Q 2988 4147 2022 4147 
L 1259 4147 
z
M 628 4666 
L 1925 4666 
Q 3281 4666 3915 4102 
Q 4550 3538 4550 2338 
Q 4550 1131 3912 565 
Q 3275 0 1925 0 
L 628 0 
L 628 4666 
z
" transform="scale(0.015625)"/>
       <path id="DejaVuSans-43" d="M 4122 4306 
L 4122 3641 
Q 3803 3938 3442 4084 
Q 3081 4231 2675 4231 
Q 1875 4231 1450 3742 
Q 1025 3253 1025 2328 
Q 1025 1406 1450 917 
Q 1875 428 2675 428 
Q 3081 428 3442 575 
Q 3803 722 4122 1019 
L 4122 359 
Q 3791 134 3420 21 
Q 3050 -91 2638 -91 
Q 1578 -91 968 557 
Q 359 1206 359 2328 
Q 359 3453 968 4101 
Q 1578 4750 2638 4750 
Q 3056 4750 3426 4639 
Q 3797 4528 4122 4306 
z
" transform="scale(0.015625)"/>
       <path id="DejaVuSans-4e" d="M 628 4666 
L 1478 4666 
L 3547 763 
L 3547 4666 
L 4159 4666 
L 4159 0 
L 3309 0 
L 1241 3903 
L 1241 0 
L 628 0 
L 628 4666 
z
" transform="scale(0.015625)"/>
      </defs>
      <use xlink:href="#DejaVuSans-47"/>
      <use xlink:href="#DejaVuSans-41" x="77.490234"/>
      <use xlink:href="#DejaVuSans-54" x="138.148438"/>
      <use xlink:href="#DejaVuSans-45" x="199.232422"/>
      <use xlink:href="#DejaVuSans-44" x="262.416016"/>
      <use xlink:href="#DejaVuSans-47" x="339.417969"/>
      <use xlink:href="#DejaVuSans-43" x="416.908203"/>
      <use xlink:href="#DejaVuSans-4e" x="486.732422"/>
     </g>
    </g>
    <g id="line2d_35">
     <path d="M 180.89125 69.248563 
L 190.89125 69.248563 
L 200.89125 69.248563 
" style="fill: none; stroke: #ff7f0e; stroke-width: 1.5; stroke-linecap: square"/>
    </g>
    <g id="text_19">
     <!-- RESNET -->
     <g transform="translate(208.89125 72.748563) scale(0.1 -0.1)">
      <defs>
       <path id="DejaVuSans-53" d="M 3425 4513 
L 3425 3897 
Q 3066 4069 2747 4153 
Q 2428 4238 2131 4238 
Q 1616 4238 1336 4038 
Q 1056 3838 1056 3469 
Q 1056 3159 1242 3001 
Q 1428 2844 1947 2747 
L 2328 2669 
Q 3034 2534 3370 2195 
Q 3706 1856 3706 1288 
Q 3706 609 3251 259 
Q 2797 -91 1919 -91 
Q 1588 -91 1214 -16 
Q 841 59 441 206 
L 441 856 
Q 825 641 1194 531 
Q 1563 422 1919 422 
Q 2459 422 2753 634 
Q 3047 847 3047 1241 
Q 3047 1584 2836 1778 
Q 2625 1972 2144 2069 
L 1759 2144 
Q 1053 2284 737 2584 
Q 422 2884 422 3419 
Q 422 4038 858 4394 
Q 1294 4750 2059 4750 
Q 2388 4750 2728 4690 
Q 3069 4631 3425 4513 
z
" transform="scale(0.015625)"/>
      </defs>
      <use xlink:href="#DejaVuSans-52"/>
      <use xlink:href="#DejaVuSans-45" x="69.482422"/>
      <use xlink:href="#DejaVuSans-53" x="132.666016"/>
      <use xlink:href="#DejaVuSans-4e" x="196.142578"/>
      <use xlink:href="#DejaVuSans-45" x="270.947266"/>
      <use xlink:href="#DejaVuSans-54" x="334.130859"/>
     </g>
    </g>
    <g id="line2d_36">
     <path d="M 180.89125 83.926688 
L 190.89125 83.926688 
L 200.89125 83.926688 
" style="fill: none; stroke: #2ca02c; stroke-width: 1.5; stroke-linecap: square"/>
    </g>
    <g id="text_20">
     <!-- RESNET_painted -->
     <g transform="translate(208.89125 87.426688) scale(0.1 -0.1)">
      <defs>
       <path id="DejaVuSans-5f" d="M 3263 -1063 
L 3263 -1509 
L -63 -1509 
L -63 -1063 
L 3263 -1063 
z
" transform="scale(0.015625)"/>
       <path id="DejaVuSans-70" d="M 1159 525 
L 1159 -1331 
L 581 -1331 
L 581 3500 
L 1159 3500 
L 1159 2969 
Q 1341 3281 1617 3432 
Q 1894 3584 2278 3584 
Q 2916 3584 3314 3078 
Q 3713 2572 3713 1747 
Q 3713 922 3314 415 
Q 2916 -91 2278 -91 
Q 1894 -91 1617 61 
Q 1341 213 1159 525 
z
M 3116 1747 
Q 3116 2381 2855 2742 
Q 2594 3103 2138 3103 
Q 1681 3103 1420 2742 
Q 1159 2381 1159 1747 
Q 1159 1113 1420 752 
Q 1681 391 2138 391 
Q 2594 391 2855 752 
Q 3116 1113 3116 1747 
z
" transform="scale(0.015625)"/>
      </defs>
      <use xlink:href="#DejaVuSans-52"/>
      <use xlink:href="#DejaVuSans-45" x="69.482422"/>
      <use xlink:href="#DejaVuSans-53" x="132.666016"/>
      <use xlink:href="#DejaVuSans-4e" x="196.142578"/>
      <use xlink:href="#DejaVuSans-45" x="270.947266"/>
      <use xlink:href="#DejaVuSans-54" x="334.130859"/>
      <use xlink:href="#DejaVuSans-5f" x="395.214844"/>
      <use xlink:href="#DejaVuSans-70" x="445.214844"/>
      <use xlink:href="#DejaVuSans-61" x="508.691406"/>
      <use xlink:href="#DejaVuSans-69" x="569.970703"/>
      <use xlink:href="#DejaVuSans-6e" x="597.753906"/>
      <use xlink:href="#DejaVuSans-74" x="661.132812"/>
      <use xlink:href="#DejaVuSans-65" x="700.341797"/>
      <use xlink:href="#DejaVuSans-64" x="761.865234"/>
     </g>
    </g>
   </g>
  </g>
 </g>
 <defs>
  <clipPath id="peab60f00a5">
   <rect x="57.6" y="41.472" width="357.12" height="266.112"/>
  </clipPath>
 </defs>
</svg>
