<?xml version="1.0" encoding="utf-8" standalone="no"?>
<!DOCTYPE svg PUBLIC "-//W3C//DTD SVG 1.1//EN"
  "http://www.w3.org/Graphics/SVG/1.1/DTD/svg11.dtd">
<svg xmlns:xlink="http://www.w3.org/1999/xlink" width="460.8pt" height="345.6pt" viewBox="0 0 460.8 345.6" xmlns="http://www.w3.org/2000/svg" version="1.1">
 <metadata>
  <rdf:RDF xmlns:dc="http://purl.org/dc/elements/1.1/" xmlns:cc="http://creativecommons.org/ns#" xmlns:rdf="http://www.w3.org/1999/02/22-rdf-syntax-ns#">
   <cc:Work>
    <dc:type rdf:resource="http://purl.org/dc/dcmitype/StillImage"/>
    <dc:date>2024-03-19T23:35:32.995873</dc:date>
    <dc:format>image/svg+xml</dc:format>
    <dc:creator>
     <cc:Agent>
      <dc:title>Matplotlib v3.8.0, https://matplotlib.org/</dc:title>
     </cc:Agent>
    </dc:creator>
   </cc:Work>
  </rdf:RDF>
 </metadata>
 <defs>
  <style type="text/css">*{stroke-linejoin: round; stroke-linecap: butt}</style>
 </defs>
 <g id="figure_1">
  <g id="patch_1">
   <path d="M 0 345.6 
L 460.8 345.6 
L 460.8 0 
L 0 0 
z
" style="fill: #ffffff"/>
  </g>
  <g id="axes_1">
   <g id="patch_2">
    <path d="M 57.6 307.584 
L 414.72 307.584 
L 414.72 41.472 
L 57.6 41.472 
z
" style="fill: #ffffff"/>
   </g>
   <g id="matplotlib.axis_1">
    <g id="xtick_1">
     <g id="line2d_1">
      <path d="M 73.832727 307.584 
L 73.832727 41.472 
" clip-path="url(#p3a457f12af)" style="fill: none; stroke: #b0b0b0; stroke-width: 0.8; stroke-linecap: square"/>
     </g>
     <g id="line2d_2">
      <defs>
       <path id="mdde617c6cd" d="M 0 0 
L 0 3.5 
" style="stroke: #000000; stroke-width: 0.8"/>
      </defs>
      <g>
       <use xlink:href="#mdde617c6cd" x="73.832727" y="307.584" style="stroke: #000000; stroke-width: 0.8"/>
      </g>
     </g>
     <g id="text_1">
      <!-- 0 -->
      <g transform="translate(70.651477 322.182437) scale(0.1 -0.1)">
       <defs>
        <path id="DejaVuSans-30" d="M 2034 4250 
Q 1547 4250 1301 3770 
Q 1056 3291 1056 2328 
Q 1056 1369 1301 889 
Q 1547 409 2034 409 
Q 2525 409 2770 889 
Q 3016 1369 3016 2328 
Q 3016 3291 2770 3770 
Q 2525 4250 2034 4250 
z
M 2034 4750 
Q 2819 4750 3233 4129 
Q 3647 3509 3647 2328 
Q 3647 1150 3233 529 
Q 2819 -91 2034 -91 
Q 1250 -91 836 529 
Q 422 1150 422 2328 
Q 422 3509 836 4129 
Q 1250 4750 2034 4750 
z
" transform="scale(0.015625)"/>
       </defs>
       <use xlink:href="#DejaVuSans-30"/>
      </g>
     </g>
    </g>
    <g id="xtick_2">
     <g id="line2d_3">
      <path d="M 119.049238 307.584 
L 119.049238 41.472 
" clip-path="url(#p3a457f12af)" style="fill: none; stroke: #b0b0b0; stroke-width: 0.8; stroke-linecap: square"/>
     </g>
     <g id="line2d_4">
      <g>
       <use xlink:href="#mdde617c6cd" x="119.049238" y="307.584" style="stroke: #000000; stroke-width: 0.8"/>
      </g>
     </g>
     <g id="text_2">
      <!-- 50 -->
      <g transform="translate(112.686738 322.182437) scale(0.1 -0.1)">
       <defs>
        <path id="DejaVuSans-35" d="M 691 4666 
L 3169 4666 
L 3169 4134 
L 1269 4134 
L 1269 2991 
Q 1406 3038 1543 3061 
Q 1681 3084 1819 3084 
Q 2600 3084 3056 2656 
Q 3513 2228 3513 1497 
Q 3513 744 3044 326 
Q 2575 -91 1722 -91 
Q 1428 -91 1123 -41 
Q 819 9 494 109 
L 494 744 
Q 775 591 1075 516 
Q 1375 441 1709 441 
Q 2250 441 2565 725 
Q 2881 1009 2881 1497 
Q 2881 1984 2565 2268 
Q 2250 2553 1709 2553 
Q 1456 2553 1204 2497 
Q 953 2441 691 2322 
L 691 4666 
z
" transform="scale(0.015625)"/>
       </defs>
       <use xlink:href="#DejaVuSans-35"/>
       <use xlink:href="#DejaVuSans-30" x="63.623047"/>
      </g>
     </g>
    </g>
    <g id="xtick_3">
     <g id="line2d_5">
      <path d="M 164.265748 307.584 
L 164.265748 41.472 
" clip-path="url(#p3a457f12af)" style="fill: none; stroke: #b0b0b0; stroke-width: 0.8; stroke-linecap: square"/>
     </g>
     <g id="line2d_6">
      <g>
       <use xlink:href="#mdde617c6cd" x="164.265748" y="307.584" style="stroke: #000000; stroke-width: 0.8"/>
      </g>
     </g>
     <g id="text_3">
      <!-- 100 -->
      <g transform="translate(154.721998 322.182437) scale(0.1 -0.1)">
       <defs>
        <path id="DejaVuSans-31" d="M 794 531 
L 1825 531 
L 1825 4091 
L 703 3866 
L 703 4441 
L 1819 4666 
L 2450 4666 
L 2450 531 
L 3481 531 
L 3481 0 
L 794 0 
L 794 531 
z
" transform="scale(0.015625)"/>
       </defs>
       <use xlink:href="#DejaVuSans-31"/>
       <use xlink:href="#DejaVuSans-30" x="63.623047"/>
       <use xlink:href="#DejaVuSans-30" x="127.246094"/>
      </g>
     </g>
    </g>
    <g id="xtick_4">
     <g id="line2d_7">
      <path d="M 209.482259 307.584 
L 209.482259 41.472 
" clip-path="url(#p3a457f12af)" style="fill: none; stroke: #b0b0b0; stroke-width: 0.8; stroke-linecap: square"/>
     </g>
     <g id="line2d_8">
      <g>
       <use xlink:href="#mdde617c6cd" x="209.482259" y="307.584" style="stroke: #000000; stroke-width: 0.8"/>
      </g>
     </g>
     <g id="text_4">
      <!-- 150 -->
      <g transform="translate(199.938509 322.182437) scale(0.1 -0.1)">
       <use xlink:href="#DejaVuSans-31"/>
       <use xlink:href="#DejaVuSans-35" x="63.623047"/>
       <use xlink:href="#DejaVuSans-30" x="127.246094"/>
      </g>
     </g>
    </g>
    <g id="xtick_5">
     <g id="line2d_9">
      <path d="M 254.698769 307.584 
L 254.698769 41.472 
" clip-path="url(#p3a457f12af)" style="fill: none; stroke: #b0b0b0; stroke-width: 0.8; stroke-linecap: square"/>
     </g>
     <g id="line2d_10">
      <g>
       <use xlink:href="#mdde617c6cd" x="254.698769" y="307.584" style="stroke: #000000; stroke-width: 0.8"/>
      </g>
     </g>
     <g id="text_5">
      <!-- 200 -->
      <g transform="translate(245.155019 322.182437) scale(0.1 -0.1)">
       <defs>
        <path id="DejaVuSans-32" d="M 1228 531 
L 3431 531 
L 3431 0 
L 469 0 
L 469 531 
Q 828 903 1448 1529 
Q 2069 2156 2228 2338 
Q 2531 2678 2651 2914 
Q 2772 3150 2772 3378 
Q 2772 3750 2511 3984 
Q 2250 4219 1831 4219 
Q 1534 4219 1204 4116 
Q 875 4013 500 3803 
L 500 4441 
Q 881 4594 1212 4672 
Q 1544 4750 1819 4750 
Q 2544 4750 2975 4387 
Q 3406 4025 3406 3419 
Q 3406 3131 3298 2873 
Q 3191 2616 2906 2266 
Q 2828 2175 2409 1742 
Q 1991 1309 1228 531 
z
" transform="scale(0.015625)"/>
       </defs>
       <use xlink:href="#DejaVuSans-32"/>
       <use xlink:href="#DejaVuSans-30" x="63.623047"/>
       <use xlink:href="#DejaVuSans-30" x="127.246094"/>
      </g>
     </g>
    </g>
    <g id="xtick_6">
     <g id="line2d_11">
      <path d="M 299.91528 307.584 
L 299.91528 41.472 
" clip-path="url(#p3a457f12af)" style="fill: none; stroke: #b0b0b0; stroke-width: 0.8; stroke-linecap: square"/>
     </g>
     <g id="line2d_12">
      <g>
       <use xlink:href="#mdde617c6cd" x="299.91528" y="307.584" style="stroke: #000000; stroke-width: 0.8"/>
      </g>
     </g>
     <g id="text_6">
      <!-- 250 -->
      <g transform="translate(290.37153 322.182437) scale(0.1 -0.1)">
       <use xlink:href="#DejaVuSans-32"/>
       <use xlink:href="#DejaVuSans-35" x="63.623047"/>
       <use xlink:href="#DejaVuSans-30" x="127.246094"/>
      </g>
     </g>
    </g>
    <g id="xtick_7">
     <g id="line2d_13">
      <path d="M 345.13179 307.584 
L 345.13179 41.472 
" clip-path="url(#p3a457f12af)" style="fill: none; stroke: #b0b0b0; stroke-width: 0.8; stroke-linecap: square"/>
     </g>
     <g id="line2d_14">
      <g>
       <use xlink:href="#mdde617c6cd" x="345.13179" y="307.584" style="stroke: #000000; stroke-width: 0.8"/>
      </g>
     </g>
     <g id="text_7">
      <!-- 300 -->
      <g transform="translate(335.58804 322.182437) scale(0.1 -0.1)">
       <defs>
        <path id="DejaVuSans-33" d="M 2597 2516 
Q 3050 2419 3304 2112 
Q 3559 1806 3559 1356 
Q 3559 666 3084 287 
Q 2609 -91 1734 -91 
Q 1441 -91 1130 -33 
Q 819 25 488 141 
L 488 750 
Q 750 597 1062 519 
Q 1375 441 1716 441 
Q 2309 441 2620 675 
Q 2931 909 2931 1356 
Q 2931 1769 2642 2001 
Q 2353 2234 1838 2234 
L 1294 2234 
L 1294 2753 
L 1863 2753 
Q 2328 2753 2575 2939 
Q 2822 3125 2822 3475 
Q 2822 3834 2567 4026 
Q 2313 4219 1838 4219 
Q 1578 4219 1281 4162 
Q 984 4106 628 3988 
L 628 4550 
Q 988 4650 1302 4700 
Q 1616 4750 1894 4750 
Q 2613 4750 3031 4423 
Q 3450 4097 3450 3541 
Q 3450 3153 3228 2886 
Q 3006 2619 2597 2516 
z
" transform="scale(0.015625)"/>
       </defs>
       <use xlink:href="#DejaVuSans-33"/>
       <use xlink:href="#DejaVuSans-30" x="63.623047"/>
       <use xlink:href="#DejaVuSans-30" x="127.246094"/>
      </g>
     </g>
    </g>
    <g id="xtick_8">
     <g id="line2d_15">
      <path d="M 390.348301 307.584 
L 390.348301 41.472 
" clip-path="url(#p3a457f12af)" style="fill: none; stroke: #b0b0b0; stroke-width: 0.8; stroke-linecap: square"/>
     </g>
     <g id="line2d_16">
      <g>
       <use xlink:href="#mdde617c6cd" x="390.348301" y="307.584" style="stroke: #000000; stroke-width: 0.8"/>
      </g>
     </g>
     <g id="text_8">
      <!-- 350 -->
      <g transform="translate(380.804551 322.182437) scale(0.1 -0.1)">
       <use xlink:href="#DejaVuSans-33"/>
       <use xlink:href="#DejaVuSans-35" x="63.623047"/>
       <use xlink:href="#DejaVuSans-30" x="127.246094"/>
      </g>
     </g>
    </g>
    <g id="text_9">
     <!-- Rotation Angle (degree) -->
     <g transform="translate(176.420156 335.860562) scale(0.1 -0.1)">
      <defs>
       <path id="DejaVuSans-52" d="M 2841 2188 
Q 3044 2119 3236 1894 
Q 3428 1669 3622 1275 
L 4263 0 
L 3584 0 
L 2988 1197 
Q 2756 1666 2539 1819 
Q 2322 1972 1947 1972 
L 1259 1972 
L 1259 0 
L 628 0 
L 628 4666 
L 2053 4666 
Q 2853 4666 3247 4331 
Q 3641 3997 3641 3322 
Q 3641 2881 3436 2590 
Q 3231 2300 2841 2188 
z
M 1259 4147 
L 1259 2491 
L 2053 2491 
Q 2509 2491 2742 2702 
Q 2975 2913 2975 3322 
Q 2975 3731 2742 3939 
Q 2509 4147 2053 4147 
L 1259 4147 
z
" transform="scale(0.015625)"/>
       <path id="DejaVuSans-6f" d="M 1959 3097 
Q 1497 3097 1228 2736 
Q 959 2375 959 1747 
Q 959 1119 1226 758 
Q 1494 397 1959 397 
Q 2419 397 2687 759 
Q 2956 1122 2956 1747 
Q 2956 2369 2687 2733 
Q 2419 3097 1959 3097 
z
M 1959 3584 
Q 2709 3584 3137 3096 
Q 3566 2609 3566 1747 
Q 3566 888 3137 398 
Q 2709 -91 1959 -91 
Q 1206 -91 779 398 
Q 353 888 353 1747 
Q 353 2609 779 3096 
Q 1206 3584 1959 3584 
z
" transform="scale(0.015625)"/>
       <path id="DejaVuSans-74" d="M 1172 4494 
L 1172 3500 
L 2356 3500 
L 2356 3053 
L 1172 3053 
L 1172 1153 
Q 1172 725 1289 603 
Q 1406 481 1766 481 
L 2356 481 
L 2356 0 
L 1766 0 
Q 1100 0 847 248 
Q 594 497 594 1153 
L 594 3053 
L 172 3053 
L 172 3500 
L 594 3500 
L 594 4494 
L 1172 4494 
z
" transform="scale(0.015625)"/>
       <path id="DejaVuSans-61" d="M 2194 1759 
Q 1497 1759 1228 1600 
Q 959 1441 959 1056 
Q 959 750 1161 570 
Q 1363 391 1709 391 
Q 2188 391 2477 730 
Q 2766 1069 2766 1631 
L 2766 1759 
L 2194 1759 
z
M 3341 1997 
L 3341 0 
L 2766 0 
L 2766 531 
Q 2569 213 2275 61 
Q 1981 -91 1556 -91 
Q 1019 -91 701 211 
Q 384 513 384 1019 
Q 384 1609 779 1909 
Q 1175 2209 1959 2209 
L 2766 2209 
L 2766 2266 
Q 2766 2663 2505 2880 
Q 2244 3097 1772 3097 
Q 1472 3097 1187 3025 
Q 903 2953 641 2809 
L 641 3341 
Q 956 3463 1253 3523 
Q 1550 3584 1831 3584 
Q 2591 3584 2966 3190 
Q 3341 2797 3341 1997 
z
" transform="scale(0.015625)"/>
       <path id="DejaVuSans-69" d="M 603 3500 
L 1178 3500 
L 1178 0 
L 603 0 
L 603 3500 
z
M 603 4863 
L 1178 4863 
L 1178 4134 
L 603 4134 
L 603 4863 
z
" transform="scale(0.015625)"/>
       <path id="DejaVuSans-6e" d="M 3513 2113 
L 3513 0 
L 2938 0 
L 2938 2094 
Q 2938 2591 2744 2837 
Q 2550 3084 2163 3084 
Q 1697 3084 1428 2787 
Q 1159 2491 1159 1978 
L 1159 0 
L 581 0 
L 581 3500 
L 1159 3500 
L 1159 2956 
Q 1366 3272 1645 3428 
Q 1925 3584 2291 3584 
Q 2894 3584 3203 3211 
Q 3513 2838 3513 2113 
z
" transform="scale(0.015625)"/>
       <path id="DejaVuSans-20" transform="scale(0.015625)"/>
       <path id="DejaVuSans-41" d="M 2188 4044 
L 1331 1722 
L 3047 1722 
L 2188 4044 
z
M 1831 4666 
L 2547 4666 
L 4325 0 
L 3669 0 
L 3244 1197 
L 1141 1197 
L 716 0 
L 50 0 
L 1831 4666 
z
" transform="scale(0.015625)"/>
       <path id="DejaVuSans-67" d="M 2906 1791 
Q 2906 2416 2648 2759 
Q 2391 3103 1925 3103 
Q 1463 3103 1205 2759 
Q 947 2416 947 1791 
Q 947 1169 1205 825 
Q 1463 481 1925 481 
Q 2391 481 2648 825 
Q 2906 1169 2906 1791 
z
M 3481 434 
Q 3481 -459 3084 -895 
Q 2688 -1331 1869 -1331 
Q 1566 -1331 1297 -1286 
Q 1028 -1241 775 -1147 
L 775 -588 
Q 1028 -725 1275 -790 
Q 1522 -856 1778 -856 
Q 2344 -856 2625 -561 
Q 2906 -266 2906 331 
L 2906 616 
Q 2728 306 2450 153 
Q 2172 0 1784 0 
Q 1141 0 747 490 
Q 353 981 353 1791 
Q 353 2603 747 3093 
Q 1141 3584 1784 3584 
Q 2172 3584 2450 3431 
Q 2728 3278 2906 2969 
L 2906 3500 
L 3481 3500 
L 3481 434 
z
" transform="scale(0.015625)"/>
       <path id="DejaVuSans-6c" d="M 603 4863 
L 1178 4863 
L 1178 0 
L 603 0 
L 603 4863 
z
" transform="scale(0.015625)"/>
       <path id="DejaVuSans-65" d="M 3597 1894 
L 3597 1613 
L 953 1613 
Q 991 1019 1311 708 
Q 1631 397 2203 397 
Q 2534 397 2845 478 
Q 3156 559 3463 722 
L 3463 178 
Q 3153 47 2828 -22 
Q 2503 -91 2169 -91 
Q 1331 -91 842 396 
Q 353 884 353 1716 
Q 353 2575 817 3079 
Q 1281 3584 2069 3584 
Q 2775 3584 3186 3129 
Q 3597 2675 3597 1894 
z
M 3022 2063 
Q 3016 2534 2758 2815 
Q 2500 3097 2075 3097 
Q 1594 3097 1305 2825 
Q 1016 2553 972 2059 
L 3022 2063 
z
" transform="scale(0.015625)"/>
       <path id="DejaVuSans-28" d="M 1984 4856 
Q 1566 4138 1362 3434 
Q 1159 2731 1159 2009 
Q 1159 1288 1364 580 
Q 1569 -128 1984 -844 
L 1484 -844 
Q 1016 -109 783 600 
Q 550 1309 550 2009 
Q 550 2706 781 3412 
Q 1013 4119 1484 4856 
L 1984 4856 
z
" transform="scale(0.015625)"/>
       <path id="DejaVuSans-64" d="M 2906 2969 
L 2906 4863 
L 3481 4863 
L 3481 0 
L 2906 0 
L 2906 525 
Q 2725 213 2448 61 
Q 2172 -91 1784 -91 
Q 1150 -91 751 415 
Q 353 922 353 1747 
Q 353 2572 751 3078 
Q 1150 3584 1784 3584 
Q 2172 3584 2448 3432 
Q 2725 3281 2906 2969 
z
M 947 1747 
Q 947 1113 1208 752 
Q 1469 391 1925 391 
Q 2381 391 2643 752 
Q 2906 1113 2906 1747 
Q 2906 2381 2643 2742 
Q 2381 3103 1925 3103 
Q 1469 3103 1208 2742 
Q 947 2381 947 1747 
z
" transform="scale(0.015625)"/>
       <path id="DejaVuSans-72" d="M 2631 2963 
Q 2534 3019 2420 3045 
Q 2306 3072 2169 3072 
Q 1681 3072 1420 2755 
Q 1159 2438 1159 1844 
L 1159 0 
L 581 0 
L 581 3500 
L 1159 3500 
L 1159 2956 
Q 1341 3275 1631 3429 
Q 1922 3584 2338 3584 
Q 2397 3584 2469 3576 
Q 2541 3569 2628 3553 
L 2631 2963 
z
" transform="scale(0.015625)"/>
       <path id="DejaVuSans-29" d="M 513 4856 
L 1013 4856 
Q 1481 4119 1714 3412 
Q 1947 2706 1947 2009 
Q 1947 1309 1714 600 
Q 1481 -109 1013 -844 
L 513 -844 
Q 928 -128 1133 580 
Q 1338 1288 1338 2009 
Q 1338 2731 1133 3434 
Q 928 4138 513 4856 
z
" transform="scale(0.015625)"/>
      </defs>
      <use xlink:href="#DejaVuSans-52"/>
      <use xlink:href="#DejaVuSans-6f" x="64.982422"/>
      <use xlink:href="#DejaVuSans-74" x="126.164062"/>
      <use xlink:href="#DejaVuSans-61" x="165.373047"/>
      <use xlink:href="#DejaVuSans-74" x="226.652344"/>
      <use xlink:href="#DejaVuSans-69" x="265.861328"/>
      <use xlink:href="#DejaVuSans-6f" x="293.644531"/>
      <use xlink:href="#DejaVuSans-6e" x="354.826172"/>
      <use xlink:href="#DejaVuSans-20" x="418.205078"/>
      <use xlink:href="#DejaVuSans-41" x="449.992188"/>
      <use xlink:href="#DejaVuSans-6e" x="518.400391"/>
      <use xlink:href="#DejaVuSans-67" x="581.779297"/>
      <use xlink:href="#DejaVuSans-6c" x="645.255859"/>
      <use xlink:href="#DejaVuSans-65" x="673.039062"/>
      <use xlink:href="#DejaVuSans-20" x="734.5625"/>
      <use xlink:href="#DejaVuSans-28" x="766.349609"/>
      <use xlink:href="#DejaVuSans-64" x="805.363281"/>
      <use xlink:href="#DejaVuSans-65" x="868.839844"/>
      <use xlink:href="#DejaVuSans-67" x="930.363281"/>
      <use xlink:href="#DejaVuSans-72" x="993.839844"/>
      <use xlink:href="#DejaVuSans-65" x="1032.703125"/>
      <use xlink:href="#DejaVuSans-65" x="1094.226562"/>
      <use xlink:href="#DejaVuSans-29" x="1155.75"/>
     </g>
    </g>
   </g>
   <g id="matplotlib.axis_2">
    <g id="ytick_1">
     <g id="line2d_17">
      <path d="M 57.6 288.947067 
L 414.72 288.947067 
" clip-path="url(#p3a457f12af)" style="fill: none; stroke: #b0b0b0; stroke-width: 0.8; stroke-linecap: square"/>
     </g>
     <g id="line2d_18">
      <defs>
       <path id="me43202a942" d="M 0 0 
L -3.5 0 
" style="stroke: #000000; stroke-width: 0.8"/>
      </defs>
      <g>
       <use xlink:href="#me43202a942" x="57.6" y="288.947067" style="stroke: #000000; stroke-width: 0.8"/>
      </g>
     </g>
     <g id="text_10">
      <!-- 0.2 -->
      <g transform="translate(34.696875 292.746286) scale(0.1 -0.1)">
       <defs>
        <path id="DejaVuSans-2e" d="M 684 794 
L 1344 794 
L 1344 0 
L 684 0 
L 684 794 
z
" transform="scale(0.015625)"/>
       </defs>
       <use xlink:href="#DejaVuSans-30"/>
       <use xlink:href="#DejaVuSans-2e" x="63.623047"/>
       <use xlink:href="#DejaVuSans-32" x="95.410156"/>
      </g>
     </g>
    </g>
    <g id="ytick_2">
     <g id="line2d_19">
      <path d="M 57.6 258.928055 
L 414.72 258.928055 
" clip-path="url(#p3a457f12af)" style="fill: none; stroke: #b0b0b0; stroke-width: 0.8; stroke-linecap: square"/>
     </g>
     <g id="line2d_20">
      <g>
       <use xlink:href="#me43202a942" x="57.6" y="258.928055" style="stroke: #000000; stroke-width: 0.8"/>
      </g>
     </g>
     <g id="text_11">
      <!-- 0.3 -->
      <g transform="translate(34.696875 262.727274) scale(0.1 -0.1)">
       <use xlink:href="#DejaVuSans-30"/>
       <use xlink:href="#DejaVuSans-2e" x="63.623047"/>
       <use xlink:href="#DejaVuSans-33" x="95.410156"/>
      </g>
     </g>
    </g>
    <g id="ytick_3">
     <g id="line2d_21">
      <path d="M 57.6 228.909043 
L 414.72 228.909043 
" clip-path="url(#p3a457f12af)" style="fill: none; stroke: #b0b0b0; stroke-width: 0.8; stroke-linecap: square"/>
     </g>
     <g id="line2d_22">
      <g>
       <use xlink:href="#me43202a942" x="57.6" y="228.909043" style="stroke: #000000; stroke-width: 0.8"/>
      </g>
     </g>
     <g id="text_12">
      <!-- 0.4 -->
      <g transform="translate(34.696875 232.708262) scale(0.1 -0.1)">
       <defs>
        <path id="DejaVuSans-34" d="M 2419 4116 
L 825 1625 
L 2419 1625 
L 2419 4116 
z
M 2253 4666 
L 3047 4666 
L 3047 1625 
L 3713 1625 
L 3713 1100 
L 3047 1100 
L 3047 0 
L 2419 0 
L 2419 1100 
L 313 1100 
L 313 1709 
L 2253 4666 
z
" transform="scale(0.015625)"/>
       </defs>
       <use xlink:href="#DejaVuSans-30"/>
       <use xlink:href="#DejaVuSans-2e" x="63.623047"/>
       <use xlink:href="#DejaVuSans-34" x="95.410156"/>
      </g>
     </g>
    </g>
    <g id="ytick_4">
     <g id="line2d_23">
      <path d="M 57.6 198.890032 
L 414.72 198.890032 
" clip-path="url(#p3a457f12af)" style="fill: none; stroke: #b0b0b0; stroke-width: 0.8; stroke-linecap: square"/>
     </g>
     <g id="line2d_24">
      <g>
       <use xlink:href="#me43202a942" x="57.6" y="198.890032" style="stroke: #000000; stroke-width: 0.8"/>
      </g>
     </g>
     <g id="text_13">
      <!-- 0.5 -->
      <g transform="translate(34.696875 202.68925) scale(0.1 -0.1)">
       <use xlink:href="#DejaVuSans-30"/>
       <use xlink:href="#DejaVuSans-2e" x="63.623047"/>
       <use xlink:href="#DejaVuSans-35" x="95.410156"/>
      </g>
     </g>
    </g>
    <g id="ytick_5">
     <g id="line2d_25">
      <path d="M 57.6 168.87102 
L 414.72 168.87102 
" clip-path="url(#p3a457f12af)" style="fill: none; stroke: #b0b0b0; stroke-width: 0.8; stroke-linecap: square"/>
     </g>
     <g id="line2d_26">
      <g>
       <use xlink:href="#me43202a942" x="57.6" y="168.87102" style="stroke: #000000; stroke-width: 0.8"/>
      </g>
     </g>
     <g id="text_14">
      <!-- 0.6 -->
      <g transform="translate(34.696875 172.670238) scale(0.1 -0.1)">
       <defs>
        <path id="DejaVuSans-36" d="M 2113 2584 
Q 1688 2584 1439 2293 
Q 1191 2003 1191 1497 
Q 1191 994 1439 701 
Q 1688 409 2113 409 
Q 2538 409 2786 701 
Q 3034 994 3034 1497 
Q 3034 2003 2786 2293 
Q 2538 2584 2113 2584 
z
M 3366 4563 
L 3366 3988 
Q 3128 4100 2886 4159 
Q 2644 4219 2406 4219 
Q 1781 4219 1451 3797 
Q 1122 3375 1075 2522 
Q 1259 2794 1537 2939 
Q 1816 3084 2150 3084 
Q 2853 3084 3261 2657 
Q 3669 2231 3669 1497 
Q 3669 778 3244 343 
Q 2819 -91 2113 -91 
Q 1303 -91 875 529 
Q 447 1150 447 2328 
Q 447 3434 972 4092 
Q 1497 4750 2381 4750 
Q 2619 4750 2861 4703 
Q 3103 4656 3366 4563 
z
" transform="scale(0.015625)"/>
       </defs>
       <use xlink:href="#DejaVuSans-30"/>
       <use xlink:href="#DejaVuSans-2e" x="63.623047"/>
       <use xlink:href="#DejaVuSans-36" x="95.410156"/>
      </g>
     </g>
    </g>
    <g id="ytick_6">
     <g id="line2d_27">
      <path d="M 57.6 138.852008 
L 414.72 138.852008 
" clip-path="url(#p3a457f12af)" style="fill: none; stroke: #b0b0b0; stroke-width: 0.8; stroke-linecap: square"/>
     </g>
     <g id="line2d_28">
      <g>
       <use xlink:href="#me43202a942" x="57.6" y="138.852008" style="stroke: #000000; stroke-width: 0.8"/>
      </g>
     </g>
     <g id="text_15">
      <!-- 0.7 -->
      <g transform="translate(34.696875 142.651227) scale(0.1 -0.1)">
       <defs>
        <path id="DejaVuSans-37" d="M 525 4666 
L 3525 4666 
L 3525 4397 
L 1831 0 
L 1172 0 
L 2766 4134 
L 525 4134 
L 525 4666 
z
" transform="scale(0.015625)"/>
       </defs>
       <use xlink:href="#DejaVuSans-30"/>
       <use xlink:href="#DejaVuSans-2e" x="63.623047"/>
       <use xlink:href="#DejaVuSans-37" x="95.410156"/>
      </g>
     </g>
    </g>
    <g id="ytick_7">
     <g id="line2d_29">
      <path d="M 57.6 108.832996 
L 414.72 108.832996 
" clip-path="url(#p3a457f12af)" style="fill: none; stroke: #b0b0b0; stroke-width: 0.8; stroke-linecap: square"/>
     </g>
     <g id="line2d_30">
      <g>
       <use xlink:href="#me43202a942" x="57.6" y="108.832996" style="stroke: #000000; stroke-width: 0.8"/>
      </g>
     </g>
     <g id="text_16">
      <!-- 0.8 -->
      <g transform="translate(34.696875 112.632215) scale(0.1 -0.1)">
       <defs>
        <path id="DejaVuSans-38" d="M 2034 2216 
Q 1584 2216 1326 1975 
Q 1069 1734 1069 1313 
Q 1069 891 1326 650 
Q 1584 409 2034 409 
Q 2484 409 2743 651 
Q 3003 894 3003 1313 
Q 3003 1734 2745 1975 
Q 2488 2216 2034 2216 
z
M 1403 2484 
Q 997 2584 770 2862 
Q 544 3141 544 3541 
Q 544 4100 942 4425 
Q 1341 4750 2034 4750 
Q 2731 4750 3128 4425 
Q 3525 4100 3525 3541 
Q 3525 3141 3298 2862 
Q 3072 2584 2669 2484 
Q 3125 2378 3379 2068 
Q 3634 1759 3634 1313 
Q 3634 634 3220 271 
Q 2806 -91 2034 -91 
Q 1263 -91 848 271 
Q 434 634 434 1313 
Q 434 1759 690 2068 
Q 947 2378 1403 2484 
z
M 1172 3481 
Q 1172 3119 1398 2916 
Q 1625 2713 2034 2713 
Q 2441 2713 2670 2916 
Q 2900 3119 2900 3481 
Q 2900 3844 2670 4047 
Q 2441 4250 2034 4250 
Q 1625 4250 1398 4047 
Q 1172 3844 1172 3481 
z
" transform="scale(0.015625)"/>
       </defs>
       <use xlink:href="#DejaVuSans-30"/>
       <use xlink:href="#DejaVuSans-2e" x="63.623047"/>
       <use xlink:href="#DejaVuSans-38" x="95.410156"/>
      </g>
     </g>
    </g>
    <g id="ytick_8">
     <g id="line2d_31">
      <path d="M 57.6 78.813984 
L 414.72 78.813984 
" clip-path="url(#p3a457f12af)" style="fill: none; stroke: #b0b0b0; stroke-width: 0.8; stroke-linecap: square"/>
     </g>
     <g id="line2d_32">
      <g>
       <use xlink:href="#me43202a942" x="57.6" y="78.813984" style="stroke: #000000; stroke-width: 0.8"/>
      </g>
     </g>
     <g id="text_17">
      <!-- 0.9 -->
      <g transform="translate(34.696875 82.613203) scale(0.1 -0.1)">
       <defs>
        <path id="DejaVuSans-39" d="M 703 97 
L 703 672 
Q 941 559 1184 500 
Q 1428 441 1663 441 
Q 2288 441 2617 861 
Q 2947 1281 2994 2138 
Q 2813 1869 2534 1725 
Q 2256 1581 1919 1581 
Q 1219 1581 811 2004 
Q 403 2428 403 3163 
Q 403 3881 828 4315 
Q 1253 4750 1959 4750 
Q 2769 4750 3195 4129 
Q 3622 3509 3622 2328 
Q 3622 1225 3098 567 
Q 2575 -91 1691 -91 
Q 1453 -91 1209 -44 
Q 966 3 703 97 
z
M 1959 2075 
Q 2384 2075 2632 2365 
Q 2881 2656 2881 3163 
Q 2881 3666 2632 3958 
Q 2384 4250 1959 4250 
Q 1534 4250 1286 3958 
Q 1038 3666 1038 3163 
Q 1038 2656 1286 2365 
Q 1534 2075 1959 2075 
z
" transform="scale(0.015625)"/>
       </defs>
       <use xlink:href="#DejaVuSans-30"/>
       <use xlink:href="#DejaVuSans-2e" x="63.623047"/>
       <use xlink:href="#DejaVuSans-39" x="95.410156"/>
      </g>
     </g>
    </g>
    <g id="ytick_9">
     <g id="line2d_33">
      <path d="M 57.6 48.794972 
L 414.72 48.794972 
" clip-path="url(#p3a457f12af)" style="fill: none; stroke: #b0b0b0; stroke-width: 0.8; stroke-linecap: square"/>
     </g>
     <g id="line2d_34">
      <g>
       <use xlink:href="#me43202a942" x="57.6" y="48.794972" style="stroke: #000000; stroke-width: 0.8"/>
      </g>
     </g>
     <g id="text_18">
      <!-- 1.0 -->
      <g transform="translate(34.696875 52.594191) scale(0.1 -0.1)">
       <use xlink:href="#DejaVuSans-31"/>
       <use xlink:href="#DejaVuSans-2e" x="63.623047"/>
       <use xlink:href="#DejaVuSans-30" x="95.410156"/>
      </g>
     </g>
    </g>
    <g id="text_19">
     <!-- Accuracy -->
     <g transform="translate(28.617187 197.356125) rotate(-90) scale(0.1 -0.1)">
      <defs>
       <path id="DejaVuSans-63" d="M 3122 3366 
L 3122 2828 
Q 2878 2963 2633 3030 
Q 2388 3097 2138 3097 
Q 1578 3097 1268 2742 
Q 959 2388 959 1747 
Q 959 1106 1268 751 
Q 1578 397 2138 397 
Q 2388 397 2633 464 
Q 2878 531 3122 666 
L 3122 134 
Q 2881 22 2623 -34 
Q 2366 -91 2075 -91 
Q 1284 -91 818 406 
Q 353 903 353 1747 
Q 353 2603 823 3093 
Q 1294 3584 2113 3584 
Q 2378 3584 2631 3529 
Q 2884 3475 3122 3366 
z
" transform="scale(0.015625)"/>
       <path id="DejaVuSans-75" d="M 544 1381 
L 544 3500 
L 1119 3500 
L 1119 1403 
Q 1119 906 1312 657 
Q 1506 409 1894 409 
Q 2359 409 2629 706 
Q 2900 1003 2900 1516 
L 2900 3500 
L 3475 3500 
L 3475 0 
L 2900 0 
L 2900 538 
Q 2691 219 2414 64 
Q 2138 -91 1772 -91 
Q 1169 -91 856 284 
Q 544 659 544 1381 
z
M 1991 3584 
L 1991 3584 
z
" transform="scale(0.015625)"/>
       <path id="DejaVuSans-79" d="M 2059 -325 
Q 1816 -950 1584 -1140 
Q 1353 -1331 966 -1331 
L 506 -1331 
L 506 -850 
L 844 -850 
Q 1081 -850 1212 -737 
Q 1344 -625 1503 -206 
L 1606 56 
L 191 3500 
L 800 3500 
L 1894 763 
L 2988 3500 
L 3597 3500 
L 2059 -325 
z
" transform="scale(0.015625)"/>
      </defs>
      <use xlink:href="#DejaVuSans-41"/>
      <use xlink:href="#DejaVuSans-63" x="66.658203"/>
      <use xlink:href="#DejaVuSans-63" x="121.638672"/>
      <use xlink:href="#DejaVuSans-75" x="176.619141"/>
      <use xlink:href="#DejaVuSans-72" x="239.998047"/>
      <use xlink:href="#DejaVuSans-61" x="281.111328"/>
      <use xlink:href="#DejaVuSans-63" x="342.390625"/>
      <use xlink:href="#DejaVuSans-79" x="397.371094"/>
     </g>
    </g>
   </g>
   <g id="line2d_35">
    <path d="M 73.832727 53.568 
L 75.641388 53.568 
L 76.545718 53.751308 
L 77.450048 54.183026 
L 79.258709 54.703036 
L 81.067369 55.064981 
L 82.876029 55.538987 
L 84.68469 56.030238 
L 85.58902 56.407707 
L 89.206341 58.517193 
L 91.015001 59.847745 
L 92.823662 61.805457 
L 94.632322 64.054433 
L 96.440983 66.995007 
L 98.249643 70.40014 
L 100.058303 74.784891 
L 101.866964 79.953985 
L 103.675624 85.940407 
L 105.484285 92.931878 
L 110.005936 114.239101 
L 112.718926 129.293187 
L 114.527587 139.888197 
L 117.240577 154.934714 
L 119.953568 170.206415 
L 121.762228 179.885086 
L 123.570889 188.984409 
L 127.18821 207.62405 
L 129.9012 219.863756 
L 132.614191 231.710676 
L 134.422851 238.763622 
L 136.231512 245.236391 
L 138.944502 254.170889 
L 140.753163 259.192515 
L 142.561823 263.85575 
L 144.370484 267.431313 
L 146.179144 270.762281 
L 147.987805 273.34605 
L 148.892135 274.317918 
L 149.796465 275.519823 
L 151.605125 277.375352 
L 152.509456 278.238418 
L 154.318116 279.486058 
L 156.126776 280.496614 
L 158.839767 281.820194 
L 159.744097 282.41283 
L 163.361418 286.102138 
L 166.978739 288.5071 
L 170.59606 291.347036 
L 173.30905 293.124507 
L 175.117711 294.168264 
L 176.022041 294.615761 
L 177.830701 295.305332 
L 180.543692 295.488 
L 184.161013 295.176765 
L 185.969673 294.768513 
L 186.874004 294.321453 
L 188.682664 293.056863 
L 190.491324 291.285973 
L 193.204315 288.246433 
L 198.630296 280.131192 
L 200.438957 277.523095 
L 204.056278 272.271323 
L 211.290919 260.928389 
L 213.09958 258.337425 
L 219.429891 250.161377 
L 224.855872 245.075455 
L 227.568863 243.236307 
L 229.377523 242.267538 
L 232.994844 240.29109 
L 234.803505 239.328961 
L 237.516495 238.213545 
L 238.420826 237.913494 
L 239.325156 237.751516 
L 241.133816 237.689772 
L 243.846807 237.168912 
L 245.655467 237.476626 
L 246.559797 237.919691 
L 248.368458 238.414966 
L 250.177118 238.852761 
L 253.794439 240.28451 
L 255.6031 241.1683 
L 259.22042 243.318948 
L 261.029081 244.648642 
L 268.263722 252.000389 
L 269.168053 253.320553 
L 273.689704 259.061048 
L 276.402694 262.981783 
L 278.211355 265.429312 
L 281.828676 269.649353 
L 287.254657 275.140752 
L 288.158987 276.140142 
L 289.967648 278.510418 
L 290.871978 279.506052 
L 293.584968 281.97283 
L 295.393629 283.834074 
L 299.01095 286.971007 
L 303.532601 290.178452 
L 308.958582 292.573756 
L 312.575903 293.331822 
L 313.480233 293.187533 
L 316.193224 292.118067 
L 318.906214 291.405159 
L 319.810544 291.213384 
L 320.714875 291.199887 
L 322.523535 291.546642 
L 323.427865 291.472802 
L 324.332195 291.130172 
L 325.236526 290.605667 
L 327.949516 289.724483 
L 329.758177 289.046338 
L 336.088488 286.047296 
L 337.897149 284.594484 
L 340.610139 281.935203 
L 342.4188 279.641461 
L 344.22746 277.238684 
L 346.036121 274.400571 
L 346.940451 272.748253 
L 348.749111 268.825594 
L 349.653441 266.752153 
L 355.079423 248.585937 
L 355.983753 245.222363 
L 357.792413 237.234237 
L 361.409734 219.303685 
L 366.835715 189.359351 
L 375.879017 138.44619 
L 378.592008 124.707044 
L 381.304999 112.016635 
L 384.017989 100.62209 
L 385.82665 93.709897 
L 388.53964 84.938686 
L 390.348301 79.93376 
L 392.156961 75.634214 
L 393.965622 71.948654 
L 395.774282 68.615431 
L 397.582943 65.778033 
L 398.487273 64.55703 
L 398.487273 64.55703 
" clip-path="url(#p3a457f12af)" style="fill: none; stroke: #1f77b4; stroke-width: 1.5; stroke-linecap: square"/>
   </g>
   <g id="line2d_36">
    <path d="M 73.832727 58.881352 
L 74.737057 57.97841 
L 75.641388 57.67854 
L 76.545718 57.681565 
L 77.450048 58.449905 
L 79.258709 58.870444 
L 80.163039 59.214155 
L 81.067369 59.404398 
L 81.971699 59.875417 
L 82.876029 60.215738 
L 84.68469 61.434459 
L 88.302011 64.376477 
L 90.110671 66.226056 
L 91.919331 68.618432 
L 92.823662 69.847598 
L 93.727992 71.268943 
L 94.632322 72.985085 
L 97.345313 79.168129 
L 99.153973 84.326014 
L 100.962634 90.162653 
L 102.771294 97.05095 
L 104.579954 104.621703 
L 105.484285 108.556017 
L 110.910266 137.139983 
L 112.718926 147.742301 
L 114.527587 158.679893 
L 117.240577 174.254361 
L 120.857898 194.674905 
L 122.666559 203.734943 
L 126.283879 221.437397 
L 128.09254 229.449188 
L 131.709861 243.227266 
L 136.231512 257.81939 
L 138.944502 265.063429 
L 140.753163 269.31754 
L 142.561823 272.916837 
L 143.466153 274.4403 
L 144.370484 275.661824 
L 146.179144 278.529787 
L 148.892135 281.490276 
L 150.700795 283.223191 
L 152.509456 284.595762 
L 154.318116 285.504942 
L 157.031107 286.555291 
L 157.935437 286.755614 
L 160.648427 288.149356 
L 161.552758 288.90031 
L 162.457088 289.29962 
L 163.361418 289.920592 
L 165.170079 290.344158 
L 168.787399 292.073289 
L 170.59606 292.560939 
L 175.117711 293.973703 
L 177.830701 294.38978 
L 179.639362 294.006417 
L 180.543692 293.966108 
L 183.256683 293.07903 
L 184.161013 292.679285 
L 186.874004 290.706914 
L 188.682664 288.647708 
L 190.491324 286.161731 
L 193.204315 281.929189 
L 195.012975 278.700277 
L 195.917306 276.72268 
L 197.725966 273.372754 
L 206.769268 255.093393 
L 211.290919 246.552319 
L 214.00391 241.922533 
L 214.90824 240.483663 
L 216.7169 236.912198 
L 218.525561 233.91094 
L 222.142882 227.747656 
L 224.855872 224.229996 
L 226.664533 222.484757 
L 227.568863 221.487406 
L 228.473193 220.686952 
L 232.090514 218.288788 
L 233.899174 216.688435 
L 235.707835 215.411955 
L 237.516495 214.378007 
L 238.420826 213.937218 
L 239.325156 213.622722 
L 241.133816 213.66603 
L 243.846807 213.587917 
L 245.655467 213.779469 
L 247.464128 214.820287 
L 248.368458 215.120033 
L 251.081448 216.675336 
L 252.890109 217.853166 
L 255.6031 219.644893 
L 258.31609 222.370249 
L 259.22042 223.383624 
L 260.124751 224.172342 
L 261.933411 226.139143 
L 263.742071 228.682188 
L 264.646402 230.021032 
L 266.455062 232.113141 
L 268.263722 234.695653 
L 269.168053 236.259019 
L 270.976713 238.558677 
L 271.881043 240.023485 
L 272.785374 241.24839 
L 276.402694 247.162327 
L 280.924345 253.732791 
L 282.733006 256.10933 
L 284.541666 258.704366 
L 286.350327 260.903504 
L 292.680638 269.194552 
L 294.489299 271.622553 
L 300.81961 279.603558 
L 303.532601 282.538292 
L 307.149921 285.842974 
L 308.958582 287.378353 
L 309.862912 288.008323 
L 311.671573 289.457027 
L 313.480233 290.76314 
L 315.288893 291.453747 
L 318.001884 292.228698 
L 321.619205 292.959809 
L 323.427865 293.342916 
L 324.332195 293.626807 
L 327.949516 294.170406 
L 328.853847 294.352863 
L 330.662507 294.361797 
L 331.566837 294.095364 
L 332.471167 293.986369 
L 333.375498 293.671529 
L 335.184158 293.24003 
L 337.897149 292.283201 
L 340.610139 290.752742 
L 343.32313 288.565015 
L 344.22746 287.671222 
L 345.13179 286.571588 
L 347.844781 282.607841 
L 349.653441 279.170764 
L 354.175092 266.976521 
L 355.983753 260.721962 
L 357.792413 253.652384 
L 360.505404 241.704736 
L 363.218395 228.676692 
L 366.835715 209.390728 
L 369.548706 194.483344 
L 380.400669 135.354443 
L 383.113659 122.769328 
L 384.92232 114.724729 
L 387.63531 104.098764 
L 389.443971 97.74804 
L 392.156961 89.361296 
L 395.774282 79.736229 
L 397.582943 75.521832 
L 398.487273 73.686225 
L 398.487273 73.686225 
" clip-path="url(#p3a457f12af)" style="fill: none; stroke: #ff7f0e; stroke-width: 1.5; stroke-linecap: square"/>
   </g>
   <g id="line2d_37">
    <path d="M 73.832727 60.77256 
L 75.641388 60.601826 
L 76.545718 60.765389 
L 79.258709 61.937396 
L 83.78036 64.411571 
L 87.39768 67.171487 
L 88.302011 68.056137 
L 90.110671 70.229821 
L 91.919331 72.70291 
L 93.727992 75.68814 
L 94.632322 77.533188 
L 97.345313 84.182541 
L 98.249643 86.753749 
L 103.675624 104.549922 
L 109.101605 125.724106 
L 120.857898 178.100641 
L 122.666559 184.960734 
L 125.379549 196.776467 
L 127.18821 204.220085 
L 129.9012 215.500291 
L 133.518521 228.863919 
L 141.657493 254.168467 
L 142.561823 256.838449 
L 145.274814 263.938376 
L 147.083474 268.891354 
L 148.892135 273.153378 
L 150.700795 277.227309 
L 153.413786 283.220441 
L 155.222446 286.510319 
L 157.031107 289.178779 
L 159.744097 292.16392 
L 161.552758 293.54546 
L 162.457088 294.201497 
L 163.361418 294.433169 
L 165.170079 295.127166 
L 168.787399 295.441747 
L 170.59606 294.837579 
L 172.40472 293.986837 
L 175.117711 291.923601 
L 178.735032 288.195386 
L 183.256683 282.677324 
L 184.161013 281.509059 
L 185.969673 278.470208 
L 188.682664 273.968939 
L 191.395655 269.322367 
L 195.917306 261.881434 
L 196.821636 260.169413 
L 197.725966 258.714545 
L 199.534626 255.307801 
L 201.343287 252.193327 
L 204.056278 247.60166 
L 204.960608 246.069471 
L 209.482259 240.007244 
L 210.386589 238.584266 
L 214.00391 234.194519 
L 217.621231 229.536757 
L 220.334221 226.713262 
L 221.238552 225.898449 
L 222.142882 224.929689 
L 223.951542 223.53096 
L 225.760203 222.333713 
L 227.568863 221.206244 
L 229.377523 219.882301 
L 231.186184 218.839429 
L 232.994844 217.423697 
L 236.612165 214.16341 
L 238.420826 212.922735 
L 239.325156 212.440626 
L 240.229486 212.107626 
L 241.133816 211.972352 
L 242.038146 211.648809 
L 242.942477 211.451045 
L 243.846807 211.093683 
L 244.751137 210.611368 
L 245.655467 210.319289 
L 246.559797 210.157315 
L 247.464128 210.14607 
L 248.368458 209.952838 
L 249.272788 209.528553 
L 252.890109 209.317968 
L 253.794439 209.345815 
L 255.6031 209.16996 
L 256.50743 209.537722 
L 257.41176 209.730441 
L 259.22042 210.687425 
L 261.933411 211.773319 
L 263.742071 212.762939 
L 266.455062 214.497144 
L 269.168053 216.991102 
L 270.072383 217.59694 
L 271.881043 219.526805 
L 274.594034 223.217505 
L 275.498364 224.366636 
L 278.211355 228.616502 
L 282.733006 236.745106 
L 285.445996 240.965406 
L 286.350327 242.836036 
L 289.967648 249.327694 
L 294.489299 257.667275 
L 299.91528 266.690562 
L 304.436931 273.170521 
L 306.245591 275.577774 
L 308.054252 277.893872 
L 308.958582 279.001433 
L 309.862912 280.342039 
L 311.671573 282.46407 
L 314.384563 285.313486 
L 315.288893 286.142469 
L 317.097554 287.318624 
L 318.906214 288.271308 
L 322.523535 289.840796 
L 323.427865 290.183416 
L 325.236526 290.418021 
L 329.758177 290.796432 
L 330.662507 290.464259 
L 331.566837 290.348415 
L 333.375498 289.927598 
L 334.279828 289.835524 
L 338.801479 288.090559 
L 340.610139 287.236992 
L 342.4188 285.946941 
L 344.22746 284.643028 
L 346.036121 282.741558 
L 347.844781 280.520867 
L 348.749111 279.216977 
L 351.462102 273.945958 
L 354.175092 267.727013 
L 355.983753 262.263354 
L 357.792413 256.341883 
L 359.601074 249.800705 
L 361.409734 242.769896 
L 364.122725 230.893156 
L 366.835715 217.435075 
L 368.644376 208.16762 
L 372.261697 188.153094 
L 379.496338 146.187386 
L 382.209329 131.584903 
L 384.92232 118.164886 
L 386.73098 109.992879 
L 389.443971 99.140522 
L 391.252631 92.95196 
L 393.061291 87.636529 
L 394.869952 83.063092 
L 396.678612 79.022654 
L 398.487273 75.505503 
L 398.487273 75.505503 
" clip-path="url(#p3a457f12af)" style="fill: none; stroke: #2ca02c; stroke-width: 1.5; stroke-linecap: square"/>
   </g>
   <g id="patch_3">
    <path d="M 57.6 307.584 
L 57.6 41.472 
" style="fill: none; stroke: #000000; stroke-width: 0.8; stroke-linejoin: miter; stroke-linecap: square"/>
   </g>
   <g id="patch_4">
    <path d="M 414.72 307.584 
L 414.72 41.472 
" style="fill: none; stroke: #000000; stroke-width: 0.8; stroke-linejoin: miter; stroke-linecap: square"/>
   </g>
   <g id="patch_5">
    <path d="M 57.6 307.584 
L 414.72 307.584 
" style="fill: none; stroke: #000000; stroke-width: 0.8; stroke-linejoin: miter; stroke-linecap: square"/>
   </g>
   <g id="patch_6">
    <path d="M 57.6 41.472 
L 414.72 41.472 
" style="fill: none; stroke: #000000; stroke-width: 0.8; stroke-linejoin: miter; stroke-linecap: square"/>
   </g>
   <g id="legend_1">
    <g id="patch_7">
     <path d="M 178.89125 93.7845 
L 293.42875 93.7845 
Q 295.42875 93.7845 295.42875 91.7845 
L 295.42875 48.472 
Q 295.42875 46.472 293.42875 46.472 
L 178.89125 46.472 
Q 176.89125 46.472 176.89125 48.472 
L 176.89125 91.7845 
Q 176.89125 93.7845 178.89125 93.7845 
z
" style="fill: #ffffff; opacity: 0.8; stroke: #cccccc; stroke-linejoin: miter"/>
    </g>
    <g id="line2d_38">
     <path d="M 180.89125 54.570438 
L 190.89125 54.570438 
L 200.89125 54.570438 
" style="fill: none; stroke: #1f77b4; stroke-width: 1.5; stroke-linecap: square"/>
    </g>
    <g id="text_20">
     <!-- RESNET -->
     <g transform="translate(208.89125 58.070438) scale(0.1 -0.1)">
      <defs>
       <path id="DejaVuSans-45" d="M 628 4666 
L 3578 4666 
L 3578 4134 
L 1259 4134 
L 1259 2753 
L 3481 2753 
L 3481 2222 
L 1259 2222 
L 1259 531 
L 3634 531 
L 3634 0 
L 628 0 
L 628 4666 
z
" transform="scale(0.015625)"/>
       <path id="DejaVuSans-53" d="M 3425 4513 
L 3425 3897 
Q 3066 4069 2747 4153 
Q 2428 4238 2131 4238 
Q 1616 4238 1336 4038 
Q 1056 3838 1056 3469 
Q 1056 3159 1242 3001 
Q 1428 2844 1947 2747 
L 2328 2669 
Q 3034 2534 3370 2195 
Q 3706 1856 3706 1288 
Q 3706 609 3251 259 
Q 2797 -91 1919 -91 
Q 1588 -91 1214 -16 
Q 841 59 441 206 
L 441 856 
Q 825 641 1194 531 
Q 1563 422 1919 422 
Q 2459 422 2753 634 
Q 3047 847 3047 1241 
Q 3047 1584 2836 1778 
Q 2625 1972 2144 2069 
L 1759 2144 
Q 1053 2284 737 2584 
Q 422 2884 422 3419 
Q 422 4038 858 4394 
Q 1294 4750 2059 4750 
Q 2388 4750 2728 4690 
Q 3069 4631 3425 4513 
z
" transform="scale(0.015625)"/>
       <path id="DejaVuSans-4e" d="M 628 4666 
L 1478 4666 
L 3547 763 
L 3547 4666 
L 4159 4666 
L 4159 0 
L 3309 0 
L 1241 3903 
L 1241 0 
L 628 0 
L 628 4666 
z
" transform="scale(0.015625)"/>
       <path id="DejaVuSans-54" d="M -19 4666 
L 3928 4666 
L 3928 4134 
L 2272 4134 
L 2272 0 
L 1638 0 
L 1638 4134 
L -19 4134 
L -19 4666 
z
" transform="scale(0.015625)"/>
      </defs>
      <use xlink:href="#DejaVuSans-52"/>
      <use xlink:href="#DejaVuSans-45" x="69.482422"/>
      <use xlink:href="#DejaVuSans-53" x="132.666016"/>
      <use xlink:href="#DejaVuSans-4e" x="196.142578"/>
      <use xlink:href="#DejaVuSans-45" x="270.947266"/>
      <use xlink:href="#DejaVuSans-54" x="334.130859"/>
     </g>
    </g>
    <g id="line2d_39">
     <path d="M 180.89125 69.248563 
L 190.89125 69.248563 
L 200.89125 69.248563 
" style="fill: none; stroke: #ff7f0e; stroke-width: 1.5; stroke-linecap: square"/>
    </g>
    <g id="text_21">
     <!-- RESNET_painted -->
     <g transform="translate(208.89125 72.748563) scale(0.1 -0.1)">
      <defs>
       <path id="DejaVuSans-5f" d="M 3263 -1063 
L 3263 -1509 
L -63 -1509 
L -63 -1063 
L 3263 -1063 
z
" transform="scale(0.015625)"/>
       <path id="DejaVuSans-70" d="M 1159 525 
L 1159 -1331 
L 581 -1331 
L 581 3500 
L 1159 3500 
L 1159 2969 
Q 1341 3281 1617 3432 
Q 1894 3584 2278 3584 
Q 2916 3584 3314 3078 
Q 3713 2572 3713 1747 
Q 3713 922 3314 415 
Q 2916 -91 2278 -91 
Q 1894 -91 1617 61 
Q 1341 213 1159 525 
z
M 3116 1747 
Q 3116 2381 2855 2742 
Q 2594 3103 2138 3103 
Q 1681 3103 1420 2742 
Q 1159 2381 1159 1747 
Q 1159 1113 1420 752 
Q 1681 391 2138 391 
Q 2594 391 2855 752 
Q 3116 1113 3116 1747 
z
" transform="scale(0.015625)"/>
      </defs>
      <use xlink:href="#DejaVuSans-52"/>
      <use xlink:href="#DejaVuSans-45" x="69.482422"/>
      <use xlink:href="#DejaVuSans-53" x="132.666016"/>
      <use xlink:href="#DejaVuSans-4e" x="196.142578"/>
      <use xlink:href="#DejaVuSans-45" x="270.947266"/>
      <use xlink:href="#DejaVuSans-54" x="334.130859"/>
      <use xlink:href="#DejaVuSans-5f" x="395.214844"/>
      <use xlink:href="#DejaVuSans-70" x="445.214844"/>
      <use xlink:href="#DejaVuSans-61" x="508.691406"/>
      <use xlink:href="#DejaVuSans-69" x="569.970703"/>
      <use xlink:href="#DejaVuSans-6e" x="597.753906"/>
      <use xlink:href="#DejaVuSans-74" x="661.132812"/>
      <use xlink:href="#DejaVuSans-65" x="700.341797"/>
      <use xlink:href="#DejaVuSans-64" x="761.865234"/>
     </g>
    </g>
    <g id="line2d_40">
     <path d="M 180.89125 84.204813 
L 190.89125 84.204813 
L 200.89125 84.204813 
" style="fill: none; stroke: #2ca02c; stroke-width: 1.5; stroke-linecap: square"/>
    </g>
    <g id="text_22">
     <!-- GATEDGCN -->
     <g transform="translate(208.89125 87.704813) scale(0.1 -0.1)">
      <defs>
       <path id="DejaVuSans-47" d="M 3809 666 
L 3809 1919 
L 2778 1919 
L 2778 2438 
L 4434 2438 
L 4434 434 
Q 4069 175 3628 42 
Q 3188 -91 2688 -91 
Q 1594 -91 976 548 
Q 359 1188 359 2328 
Q 359 3472 976 4111 
Q 1594 4750 2688 4750 
Q 3144 4750 3555 4637 
Q 3966 4525 4313 4306 
L 4313 3634 
Q 3963 3931 3569 4081 
Q 3175 4231 2741 4231 
Q 1884 4231 1454 3753 
Q 1025 3275 1025 2328 
Q 1025 1384 1454 906 
Q 1884 428 2741 428 
Q 3075 428 3337 486 
Q 3600 544 3809 666 
z
" transform="scale(0.015625)"/>
       <path id="DejaVuSans-44" d="M 1259 4147 
L 1259 519 
L 2022 519 
Q 2988 519 3436 956 
Q 3884 1394 3884 2338 
Q 3884 3275 3436 3711 
Q 2988 4147 2022 4147 
L 1259 4147 
z
M 628 4666 
L 1925 4666 
Q 3281 4666 3915 4102 
Q 4550 3538 4550 2338 
Q 4550 1131 3912 565 
Q 3275 0 1925 0 
L 628 0 
L 628 4666 
z
" transform="scale(0.015625)"/>
       <path id="DejaVuSans-43" d="M 4122 4306 
L 4122 3641 
Q 3803 3938 3442 4084 
Q 3081 4231 2675 4231 
Q 1875 4231 1450 3742 
Q 1025 3253 1025 2328 
Q 1025 1406 1450 917 
Q 1875 428 2675 428 
Q 3081 428 3442 575 
Q 3803 722 4122 1019 
L 4122 359 
Q 3791 134 3420 21 
Q 3050 -91 2638 -91 
Q 1578 -91 968 557 
Q 359 1206 359 2328 
Q 359 3453 968 4101 
Q 1578 4750 2638 4750 
Q 3056 4750 3426 4639 
Q 3797 4528 4122 4306 
z
" transform="scale(0.015625)"/>
      </defs>
      <use xlink:href="#DejaVuSans-47"/>
      <use xlink:href="#DejaVuSans-41" x="77.490234"/>
      <use xlink:href="#DejaVuSans-54" x="138.148438"/>
      <use xlink:href="#DejaVuSans-45" x="199.232422"/>
      <use xlink:href="#DejaVuSans-44" x="262.416016"/>
      <use xlink:href="#DejaVuSans-47" x="339.417969"/>
      <use xlink:href="#DejaVuSans-43" x="416.908203"/>
      <use xlink:href="#DejaVuSans-4e" x="486.732422"/>
     </g>
    </g>
   </g>
  </g>
 </g>
 <defs>
  <clipPath id="p3a457f12af">
   <rect x="57.6" y="41.472" width="357.12" height="266.112"/>
  </clipPath>
 </defs>
</svg>
